<?xml version="1.0" standalone="no"?>
<!DOCTYPE svg PUBLIC "-//W3C//DTD SVG 20010904//EN"
 "http://www.w3.org/TR/2001/REC-SVG-20010904/DTD/svg10.dtd">
<svg version="1.0" xmlns="http://www.w3.org/2000/svg"
 width="960.000000pt" height="960.000000pt" viewBox="0 0 960.000000 960.000000"
 preserveAspectRatio="xMidYMid meet">

<g transform="translate(0.000000,960.000000) scale(0.100000,-0.100000)"
fill="#000000" stroke="none">
<path d="M0 7585 c0 -1605 3 -2015 13 -2015 9 0 8 -3 -2 -9 -17 -11 -4 -34 15
-27 7 3 16 1 19 -4 3 -5 -6 -12 -20 -16 -14 -3 -25 -12 -25 -19 0 -8 8 -11 20
-8 28 7 25 -15 -2 -27 -14 -5 -17 -9 -8 -10 12 0 13 -2 1 -9 -10 -7 -12 -36
-7 -147 3 -77 5 -156 5 -176 0 -27 4 -38 15 -38 9 0 20 -9 26 -21 7 -12 18
-18 26 -15 8 3 14 1 14 -4 0 -6 9 -10 21 -10 11 0 17 -4 14 -10 -3 -5 3 -10
14 -10 26 0 35 -16 21 -37 -10 -16 -11 -16 -6 -1 4 12 -2 18 -22 20 -17 2 -26
8 -24 17 2 8 -3 11 -13 8 -8 -4 -15 -2 -15 3 0 6 -9 10 -20 10 -10 0 -24 9
-30 20 -6 11 -15 20 -20 20 -7 0 -10 -913 -10 -2535 l0 -2535 4800 0 4800 0 0
4800 0 4800 -4284 0 c-3411 0 -4286 -3 -4290 -13 -5 -9 -7 -9 -12 1 -4 9 -40
12 -129 12 -108 0 -124 -2 -127 -17 -3 -15 -4 -15 -20 0 -14 15 -55 16 -377
17 l-361 0 0 -2015z m340 1995 c0 -5 -4 -10 -10 -10 -5 0 -10 5 -10 10 0 6 5
10 10 10 6 0 10 -4 10 -10z m3117 -27 c-3 -10 -5 -4 -5 12 0 17 2 24 5 18 2
-7 2 -21 0 -30z m-2814 -11 c4 -21 3 -31 -3 -27 -6 3 -10 20 -10 37 0 38 5 34
13 -10z m1894 6 c-3 -8 -6 -5 -6 6 -1 11 2 17 5 13 3 -3 4 -12 1 -19z m-1962
3 c3 -5 1 -12 -5 -16 -5 -3 -10 1 -10 9 0 18 6 21 15 7z m-225 -17 c0 -8 -4
-12 -10 -9 -5 3 -10 10 -10 16 0 5 5 9 10 9 6 0 10 -7 10 -16z m450 -5 c0 -5
-7 -9 -15 -9 -15 0 -20 12 -9 23 8 8 24 -1 24 -14z m170 0 c0 -6 -4 -7 -10 -4
-5 3 -10 11 -10 16 0 6 5 7 10 4 6 -3 10 -11 10 -16z m1340 1 c0 -5 -2 -10 -4
-10 -3 0 -8 5 -11 10 -3 6 -1 10 4 10 6 0 11 -4 11 -10z m-1833 -32 c-3 -8 -6
-5 -6 6 -1 11 2 17 5 13 3 -3 4 -12 1 -19z m1443 1 c0 -5 -4 -9 -10 -9 -5 0
-10 7 -10 16 0 8 5 12 10 9 6 -3 10 -10 10 -16z m-1410 1 c0 -5 -4 -10 -10
-10 -5 0 -10 5 -10 10 0 6 5 10 10 10 6 0 10 -4 10 -10z m457 -12 c-3 -8 -6
-5 -6 6 -1 11 2 17 5 13 3 -3 4 -12 1 -19z m2793 12 c0 -5 -5 -10 -11 -10 -5
0 -7 5 -4 10 3 6 8 10 11 10 2 0 4 -4 4 -10z m-3350 -20 c0 -5 -2 -10 -4 -10
-3 0 -8 5 -11 10 -3 6 -1 10 4 10 6 0 11 -4 11 -10z m180 6 c0 -3 -4 -8 -10
-11 -5 -3 -10 -1 -10 4 0 6 5 11 10 11 6 0 10 -2 10 -4z m-245 -16 c3 -5 1
-10 -4 -10 -6 0 -11 5 -11 10 0 6 2 10 4 10 3 0 8 -4 11 -10z m160 0 c3 -5 2
-10 -4 -10 -5 0 -13 5 -16 10 -3 6 -2 10 4 10 5 0 13 -4 16 -10z m35 -5 c0 -8
-2 -15 -4 -15 -2 0 -6 7 -10 15 -3 8 -1 15 4 15 6 0 10 -7 10 -15z m-124 -42
c-10 -10 -19 5 -10 18 6 11 8 11 12 0 2 -7 1 -15 -2 -18z m141 5 c-3 -8 -6 -5
-6 6 -1 11 2 17 5 13 3 -3 4 -12 1 -19z m67 7 c-4 -8 -10 -12 -15 -9 -11 6 -2
24 11 24 5 0 7 -7 4 -15z m93 -17 c-3 -7 -5 -2 -5 12 0 14 2 19 5 13 2 -7 2
-19 0 -25z m-687 12 c0 -5 -2 -10 -4 -10 -3 0 -8 5 -11 10 -3 6 -1 10 4 10 6
0 11 -4 11 -10z m736 -37 c-1 -21 -5 -37 -11 -35 -5 1 -9 17 -9 35 3 47 3 49
13 43 4 -3 8 -22 7 -43z m234 15 c0 -23 -3 -29 -11 -21 -6 6 -8 20 -4 32 9 30
15 26 15 -11z m255 22 c3 -5 -1 -10 -9 -10 -9 0 -16 5 -16 10 0 6 4 10 9 10 6
0 13 -4 16 -10z m-585 -15 c0 -8 -4 -15 -10 -15 -5 0 -10 7 -10 15 0 8 5 15
10 15 6 0 10 -7 10 -15z m650 5 c0 -5 -7 -10 -15 -10 -8 0 -15 5 -15 10 0 6 7
10 15 10 8 0 15 -4 15 -10z m-203 -22 c-3 -8 -6 -5 -6 6 -1 11 2 17 5 13 3 -3
4 -12 1 -19z m-647 8 c0 -3 -4 -8 -10 -11 -5 -3 -10 -1 -10 4 0 6 5 11 10 11
6 0 10 -2 10 -4z m91 -23 c-8 -15 -10 -15 -11 -2 0 17 10 32 18 25 2 -3 -1
-13 -7 -23z m1109 23 c0 -3 -4 -8 -10 -11 -5 -3 -10 -1 -10 4 0 6 5 11 10 11
6 0 10 -2 10 -4z m-1262 -18 c13 -13 16 -38 5 -38 -5 0 -13 11 -20 25 -12 27
-5 33 15 13z m632 2 c0 -5 -5 -10 -11 -10 -5 0 -7 5 -4 10 3 6 8 10 11 10 2 0
4 -4 4 -10z m557 -22 c-3 -8 -6 -5 -6 6 -1 11 2 17 5 13 3 -3 4 -12 1 -19z
m-1103 -20 c-4 -6 -10 -5 -15 3 -14 22 -10 33 6 19 8 -7 12 -17 9 -22z m576
11 c0 -5 -4 -9 -10 -9 -5 0 -10 7 -10 16 0 8 5 12 10 9 6 -3 10 -10 10 -16z
m110 -11 c0 -12 -10 -9 -26 6 -20 21 -17 28 6 14 11 -7 20 -16 20 -20z m72 0
c-9 -9 -12 -7 -12 12 0 19 3 21 12 12 9 -9 9 -15 0 -24z m98 28 c0 -3 -4 -8
-10 -11 -5 -3 -10 -1 -10 4 0 6 5 11 10 11 6 0 10 -2 10 -4z m-495 -16 c3 -5
1 -10 -4 -10 -6 0 -11 5 -11 10 0 6 2 10 4 10 3 0 8 -4 11 -10z m365 -11 c0
-5 -4 -9 -10 -9 -5 0 -10 7 -10 16 0 8 5 12 10 9 6 -3 10 -10 10 -16z m-573
-31 c-3 -7 -5 -2 -5 12 0 14 2 19 5 13 2 -7 2 -19 0 -25z m720 -5 c-3 -10 -5
-4 -5 12 0 17 2 24 5 18 2 -7 2 -21 0 -30z m-654 -10 c-4 -11 -3 -14 5 -9 8 5
12 0 12 -14 0 -12 -4 -19 -9 -16 -5 4 -11 1 -13 -6 -3 -7 -12 -1 -24 16 -13
21 -15 31 -6 34 6 2 12 8 12 13 0 6 -5 7 -12 3 -7 -4 -8 -3 -4 4 11 19 47 -4
39 -25z m397 16 c0 -5 -4 -9 -10 -9 -5 0 -10 7 -10 16 0 8 5 12 10 9 6 -3 10
-10 10 -16z m445 11 c3 -5 1 -10 -4 -10 -6 0 -11 5 -11 10 0 6 2 10 4 10 3 0
8 -4 11 -10z m-1099 -27 c-7 -7 -26 7 -26 19 0 6 6 6 15 -2 9 -7 13 -15 11
-17z m394 -5 c0 -5 -4 -8 -10 -8 -5 0 -10 10 -10 23 0 18 2 19 10 7 5 -8 10
-18 10 -22z m2677 10 c-3 -8 -6 -5 -6 6 -1 11 2 17 5 13 3 -3 4 -12 1 -19z
m-2480 -22 c-1 -25 -4 -31 -11 -23 -6 7 -18 18 -26 26 -13 12 -12 13 8 8 15
-3 22 -1 22 9 0 8 2 14 4 14 2 0 4 -15 3 -34z m125 12 c-7 -7 -12 -8 -12 -2 0
14 12 26 19 19 2 -3 -1 -11 -7 -17z m362 6 c3 -8 2 -12 -4 -9 -6 3 -10 10 -10
16 0 14 7 11 14 -7z m-731 -9 c4 -8 2 -17 -3 -20 -6 -4 -10 3 -10 14 0 25 6
27 13 6z m137 0 c0 -8 -4 -15 -10 -15 -5 0 -10 7 -10 15 0 8 5 15 10 15 6 0
10 -7 10 -15z m209 -62 c1 -13 -3 -23 -9 -23 -5 0 -10 21 -9 48 1 38 2 42 9
22 4 -14 8 -35 9 -47z m-672 35 c-3 -8 -6 -5 -6 6 -1 11 2 17 5 13 3 -3 4 -12
1 -19z m202 -27 c-2 -6 -12 4 -22 22 l-18 32 21 -21 c13 -12 21 -27 19 -33z
m690 -6 c0 -5 -4 -3 -9 5 -5 8 -9 22 -9 30 0 16 17 -16 18 -35z m5268 23 c-3
-8 -6 -5 -6 6 -1 11 2 17 5 13 3 -3 4 -12 1 -19z m-5877 -32 c0 -8 -4 -18 -10
-21 -5 -3 -10 3 -10 14 0 12 5 21 10 21 6 0 10 -6 10 -14z m417 -18 c-3 -8 -6
-5 -6 6 -1 11 2 17 5 13 3 -3 4 -12 1 -19z m420 0 c-3 -8 -6 -5 -6 6 -1 11 2
17 5 13 3 -3 4 -12 1 -19z m-228 -2 c7 -8 8 -17 3 -20 -6 -3 -12 3 -15 14 -6
24 -4 25 12 6z m1514 -3 c9 -31 6 -86 -3 -77 -14 14 -24 94 -12 94 6 0 13 -8
15 -17z m-1741 -90 c8 -16 7 -29 -3 -52 -8 -17 -17 -31 -21 -31 -11 0 -10 7 3
28 8 13 9 32 1 67 -6 26 -7 55 -4 64 5 10 8 4 10 -19 1 -19 8 -45 14 -57z
m-717 67 c3 -5 1 -10 -4 -10 -6 0 -11 5 -11 10 0 6 2 10 4 10 3 0 8 -4 11 -10z
m125 0 c0 -5 -4 -10 -10 -10 -5 0 -10 5 -10 10 0 6 5 10 10 10 6 0 10 -4 10
-10z m214 -11 c-3 -5 -10 -7 -15 -3 -5 3 -7 10 -3 15 3 5 10 7 15 3 5 -3 7
-10 3 -15z m203 -1 c-3 -8 -6 -5 -6 6 -1 11 2 17 5 13 3 -3 4 -12 1 -19z
m-467 -2 c0 -3 -4 -8 -10 -11 -5 -3 -10 -1 -10 4 0 6 5 11 10 11 6 0 10 -2 10
-4z m600 -18 c0 -16 -3 -19 -11 -11 -6 6 -8 16 -5 22 11 17 16 13 16 -11z
m-761 -45 c2 -20 -17 -15 -21 5 -2 9 -2 26 1 37 4 18 6 18 12 -5 4 -14 7 -31
8 -37z m855 36 c-3 -5 -10 -7 -15 -3 -5 3 -7 10 -3 15 3 5 10 7 15 3 5 -3 7
-10 3 -15z m-1094 1 c0 -5 -4 -10 -10 -10 -5 0 -10 5 -10 10 0 6 5 10 10 10 6
0 10 -4 10 -10z m890 -11 c0 -5 -4 -9 -10 -9 -5 0 -10 7 -10 16 0 8 5 12 10 9
6 -3 10 -10 10 -16z m2057 -1 c-3 -8 -6 -5 -6 6 -1 11 2 17 5 13 3 -3 4 -12 1
-19z m1853 12 c0 -5 -4 -10 -10 -10 -5 0 -10 5 -10 10 0 6 5 10 10 10 6 0 10
-4 10 -10z m-4271 -62 c1 -10 -3 -18 -9 -18 -5 0 -10 19 -9 43 1 36 2 38 9 17
4 -14 8 -33 9 -42z m141 37 c0 -8 -4 -17 -10 -20 -6 -4 -10 5 -10 20 0 15 4
24 10 20 6 -3 10 -12 10 -20z m645 15 c3 -5 1 -10 -4 -10 -6 0 -11 5 -11 10 0
6 2 10 4 10 3 0 8 -4 11 -10z m-48 -22 c-3 -8 -6 -5 -6 6 -1 11 2 17 5 13 3
-3 4 -12 1 -19z m-977 -24 c0 -8 -4 -12 -10 -9 -5 3 -10 13 -10 21 0 8 5 12
10 9 6 -3 10 -13 10 -21z m725 17 c3 -5 1 -12 -5 -16 -5 -3 -10 1 -10 9 0 18
6 21 15 7z m-72 -26 c-7 -21 -13 -19 -13 6 0 11 4 18 10 14 5 -3 7 -12 3 -20z
m187 -1 c0 -8 -4 -14 -10 -14 -5 0 -10 9 -10 21 0 11 5 17 10 14 6 -3 10 -13
10 -21z m880 -4 c0 -5 -4 -10 -10 -10 -5 0 -10 5 -10 10 0 6 5 10 10 10 6 0
10 -4 10 -10z m-1393 -22 c-3 -8 -6 -5 -6 6 -1 11 2 17 5 13 3 -3 4 -12 1 -19z
m-347 8 c0 -2 -7 -6 -15 -10 -8 -3 -15 -1 -15 4 0 6 7 10 15 10 8 0 15 -2 15
-4z m142 -18 c-7 -7 -12 -8 -12 -2 0 14 12 26 19 19 2 -3 -1 -11 -7 -17z m284
-5 c-10 -10 -19 5 -10 18 6 11 8 11 12 0 2 -7 1 -15 -2 -18z m-713 -3 c3 -11
1 -18 -4 -14 -5 3 -9 12 -9 20 0 20 7 17 13 -6z m469 -5 c-4 -26 -22 -35 -22
-12 0 10 18 37 26 37 1 0 -1 -11 -4 -25z m642 9 c3 -8 2 -12 -4 -9 -6 3 -10
10 -10 16 0 14 7 11 14 -7z m61 -14 c-4 -20 -1 -37 9 -52 18 -25 20 -38 7 -38
-15 0 -33 66 -25 94 9 36 17 33 9 -4z m-191 -21 c-9 -15 -24 10 -17 29 5 12 7
12 15 -2 5 -9 6 -21 2 -27z m1833 19 c-3 -8 -6 -5 -6 6 -1 11 2 17 5 13 3 -3
4 -12 1 -19z m-2467 2 c0 -5 -5 -10 -11 -10 -5 0 -7 5 -4 10 3 6 8 10 11 10 2
0 4 -4 4 -10z m198 -9 c3 -8 -1 -12 -9 -9 -7 2 -15 10 -17 17 -3 8 1 12 9 9 7
-2 15 -10 17 -17z m-138 -13 c0 -12 -1 -19 -3 -17 -1 2 -9 12 -16 22 -12 14
-11 17 3 17 10 0 16 -8 16 -22z m185 12 c3 -5 1 -10 -4 -10 -6 0 -11 5 -11 10
0 6 2 10 4 10 3 0 8 -4 11 -10z m435 1 c0 -17 -18 -21 -24 -6 -3 9 0 15 9 15
8 0 15 -4 15 -9z m3393 2 c-7 -2 -21 -2 -30 0 -10 3 -4 5 12 5 17 0 24 -2 18
-5z m-3750 -10 c-7 -2 -19 -2 -25 0 -7 3 -2 5 12 5 14 0 19 -2 13 -5z m232 -3
c3 -5 1 -10 -4 -10 -6 0 -11 5 -11 10 0 6 2 10 4 10 3 0 8 -4 11 -10z m215 0
c0 -5 -4 -10 -10 -10 -5 0 -10 5 -10 10 0 6 5 10 10 10 6 0 10 -4 10 -10z m90
-11 c0 -11 -4 -17 -10 -14 -5 3 -10 13 -10 21 0 8 5 14 10 14 6 0 10 -9 10
-21z m-1030 -15 c0 -8 -4 -12 -10 -9 -5 3 -10 13 -10 21 0 8 5 12 10 9 6 -3
10 -13 10 -21z m204 5 c-6 -11 -24 -2 -24 11 0 5 7 7 15 4 8 -4 12 -10 9 -15z
m-87 -11 c-3 -8 -6 -5 -6 6 -1 11 2 17 5 13 3 -3 4 -12 1 -19z m46 2 c3 -11 2
-20 -3 -20 -4 0 -10 9 -13 20 -3 11 -2 20 3 20 4 0 10 -9 13 -20z m167 10 c0
-5 -4 -10 -10 -10 -5 0 -10 5 -10 10 0 6 5 10 10 10 6 0 10 -4 10 -10z m590
-11 c0 -5 -4 -9 -10 -9 -5 0 -10 7 -10 16 0 8 5 12 10 9 6 -3 10 -10 10 -16z
m-213 -11 c-3 -8 -6 -5 -6 6 -1 11 2 17 5 13 3 -3 4 -12 1 -19z m-210 -10 c-3
-8 -6 -5 -6 6 -1 11 2 17 5 13 3 -3 4 -12 1 -19z m-275 -30 l-12 -23 6 23 c3
13 1 22 -6 22 -6 0 -8 5 -4 11 13 22 28 -9 16 -33z m138 28 c0 -3 -4 -8 -10
-11 -5 -3 -10 -1 -10 4 0 6 5 11 10 11 6 0 10 -2 10 -4z m700 -6 c0 -5 -4 -10
-10 -10 -5 0 -10 5 -10 10 0 6 5 10 10 10 6 0 10 -4 10 -10z m-1197 -15 c-3
-9 -8 -14 -10 -11 -3 3 -2 9 2 15 9 16 15 13 8 -4z m607 5 c0 -5 -4 -10 -10
-10 -5 0 -10 5 -10 10 0 6 5 10 10 10 6 0 10 -4 10 -10z m295 -51 c0 -48 -8
-63 -18 -35 -7 18 4 99 12 90 3 -3 6 -28 6 -55z m-975 41 c0 -5 -2 -10 -4 -10
-3 0 -8 5 -11 10 -3 6 -1 10 4 10 6 0 11 -4 11 -10z m370 -11 c0 -6 -4 -7 -10
-4 -5 3 -10 11 -10 16 0 6 5 7 10 4 6 -3 10 -11 10 -16z m-90 -10 c0 -6 -4 -7
-10 -4 -5 3 -10 11 -10 16 0 6 5 7 10 4 6 -3 10 -11 10 -16z m3440 -4 c0 -14
-4 -25 -10 -25 -11 0 -14 33 -3 43 11 11 13 8 13 -18z m-2650 -7 c0 -16 -3
-19 -11 -11 -6 6 -8 16 -5 22 11 17 16 13 16 -11z m-720 -4 c0 -14 -3 -14 -15
-4 -8 7 -15 14 -15 16 0 2 7 4 15 4 8 0 15 -7 15 -16z m74 -24 c-6 -5 -24 21
-24 34 0 6 6 1 14 -10 8 -10 12 -21 10 -24z m174 9 c-3 -8 -7 -3 -11 10 -4 17
-3 21 5 13 5 -5 8 -16 6 -23z m64 -16 c8 -9 6 -13 -5 -13 -18 0 -32 34 -20 52
5 9 9 7 11 -7 2 -11 9 -26 14 -32z m958 32 c0 -8 -4 -15 -10 -15 -5 0 -10 7
-10 15 0 8 5 15 10 15 6 0 10 -7 10 -15z m90 5 c0 -5 -5 -10 -11 -10 -5 0 -7
5 -4 10 3 6 8 10 11 10 2 0 4 -4 4 -10z m-1193 -42 c2 -47 -13 -41 -23 10 -5
24 -3 32 8 32 9 0 14 -13 15 -42z m193 21 c0 -5 -4 -9 -10 -9 -5 0 -10 7 -10
16 0 8 5 12 10 9 6 -3 10 -10 10 -16z m530 11 c0 -5 -2 -10 -4 -10 -3 0 -8 5
-11 10 -3 6 -1 10 4 10 6 0 11 -4 11 -10z m-840 -21 c0 -5 -4 -9 -10 -9 -5 0
-10 7 -10 16 0 8 5 12 10 9 6 -3 10 -10 10 -16z m165 12 c3 -5 1 -12 -5 -16
-5 -3 -10 1 -10 9 0 18 6 21 15 7z m-198 -33 c-3 -8 -6 -5 -6 6 -1 11 2 17 5
13 3 -3 4 -12 1 -19z m3710 16 c-3 -3 -12 -4 -19 -1 -8 3 -5 6 6 6 11 1 17 -2
13 -5z m-3597 -14 c0 -5 -2 -10 -4 -10 -3 0 -8 5 -11 10 -3 6 -1 10 4 10 6 0
11 -4 11 -10z m140 0 c0 -5 -5 -10 -11 -10 -5 0 -7 5 -4 10 3 6 8 10 11 10 2
0 4 -4 4 -10z m1690 2 c0 -13 -12 -22 -22 -16 -10 6 -1 24 13 24 5 0 9 -4 9
-8z m-2020 -6 c0 -3 -4 -8 -10 -11 -5 -3 -10 -1 -10 4 0 6 5 11 10 11 6 0 10
-2 10 -4z m145 -6 c3 -5 2 -10 -4 -10 -5 0 -13 5 -16 10 -3 6 -2 10 4 10 5 0
13 -4 16 -10z m578 -11 c3 -13 1 -19 -6 -16 -15 5 -22 37 -9 37 5 0 12 -9 15
-21z m57 6 c0 -8 -4 -15 -10 -15 -5 0 -10 7 -10 15 0 8 5 15 10 15 6 0 10 -7
10 -15z m-709 -12 c13 -16 12 -17 -3 -4 -17 13 -22 21 -14 21 2 0 10 -8 17
-17z m42 -3 c3 -11 1 -18 -4 -14 -5 3 -9 12 -9 20 0 20 7 17 13 -6z m177 -10
c0 -16 -4 -30 -10 -30 -11 0 -14 43 -3 53 11 12 13 8 13 -23z m170 20 c0 -5
-2 -10 -4 -10 -3 0 -8 5 -11 10 -3 6 -1 10 4 10 6 0 11 -4 11 -10z m107 -12
c-3 -8 -6 -5 -6 6 -1 11 2 17 5 13 3 -3 4 -12 1 -19z m-560 -30 c-3 -7 -5 -2
-5 12 0 14 2 19 5 13 2 -7 2 -19 0 -25z m353 18 c0 -3 -4 -8 -10 -11 -5 -3
-10 -1 -10 4 0 6 5 11 10 11 6 0 10 -2 10 -4z m1400 -6 c0 -5 -2 -10 -4 -10
-3 0 -8 5 -11 10 -3 6 -1 10 4 10 6 0 11 -4 11 -10z m480 -22 c0 -18 -2 -20
-9 -8 -6 8 -7 18 -5 22 9 14 14 9 14 -14z m-1890 -2 c0 -3 -4 -8 -10 -11 -5
-3 -10 -1 -10 4 0 6 5 11 10 11 6 0 10 -2 10 -4z m591 -23 c-8 -15 -10 -15
-11 -2 0 17 10 32 18 25 2 -3 -1 -13 -7 -23z m-657 1 c3 -9 6 -23 6 -32 -1
-15 -3 -14 -15 2 -17 22 -20 46 -6 46 5 0 12 -7 15 -16z m139 1 c4 -8 2 -17
-3 -20 -6 -4 -10 3 -10 14 0 25 6 27 13 6z m2874 -17 c-3 -8 -6 -5 -6 6 -1 11
2 17 5 13 3 -3 4 -12 1 -19z m-3187 2 c0 -5 -4 -10 -10 -10 -5 0 -10 5 -10 10
0 6 5 10 10 10 6 0 10 -4 10 -10z m445 0 c3 -5 1 -10 -4 -10 -6 0 -11 5 -11
10 0 6 2 10 4 10 3 0 8 -4 11 -10z m3822 -22 c-3 -8 -6 -5 -6 6 -1 11 2 17 5
13 3 -3 4 -12 1 -19z m-4360 -14 c-3 -3 -12 -4 -19 -1 -8 3 -5 6 6 6 11 1 17
-2 13 -5z m450 -16 c-3 -8 -6 -5 -6 6 -1 11 2 17 5 13 3 -3 4 -12 1 -19z
m-147 8 c0 -11 -19 -15 -25 -6 -3 5 1 10 9 10 9 0 16 -2 16 -4z m300 -17 c0
-6 -4 -7 -10 -4 -5 3 -10 11 -10 16 0 6 5 7 10 4 6 -3 10 -11 10 -16z m-558
-29 c-6 -41 -12 -38 -12 6 0 19 4 33 8 30 5 -3 7 -19 4 -36z m76 15 c-10 -23
-28 -34 -28 -18 0 7 31 43 36 43 2 0 -2 -11 -8 -25z m47 14 c11 -17 -1 -21
-15 -4 -8 9 -8 15 -2 15 6 0 14 -5 17 -11z m732 -21 c-3 -8 -6 -5 -6 6 -1 11
2 17 5 13 3 -3 4 -12 1 -19z m8262 -5 c0 -25 -1 -26 -9 -8 -12 27 -12 35 0 35
6 0 10 -12 9 -27z m-9282 -15 c-3 -8 -6 -5 -6 6 -1 11 2 17 5 13 3 -3 4 -12 1
-19z m269 -15 c-10 -10 -19 5 -10 18 6 11 8 11 12 0 2 -7 1 -15 -2 -18z m169
7 c3 -5 -1 -10 -10 -10 -9 0 -13 5 -10 10 3 6 8 10 10 10 2 0 7 -4 10 -10z
m265 6 c0 -3 -4 -8 -10 -11 -5 -3 -10 -1 -10 4 0 6 5 11 10 11 6 0 10 -2 10
-4z m150 -6 c0 -5 -4 -10 -10 -10 -5 0 -10 5 -10 10 0 6 5 10 10 10 6 0 10 -4
10 -10z m-530 -10 c0 -5 -4 -10 -10 -10 -5 0 -10 5 -10 10 0 6 5 10 10 10 6 0
10 -4 10 -10z m60 -6 c0 -8 -5 -12 -10 -9 -6 4 -8 11 -5 16 9 14 15 11 15 -7z
m415 6 c3 -5 1 -10 -4 -10 -6 0 -11 5 -11 10 0 6 2 10 4 10 3 0 8 -4 11 -10z
m8465 0 c0 -5 -7 -10 -16 -10 -8 0 -12 5 -9 10 3 6 10 10 16 10 5 0 9 -4 9
-10z m-9066 -15 c-4 -8 -11 -12 -16 -9 -6 4 -5 10 3 15 19 12 19 11 13 -6z
m76 -4 c0 -16 -12 -41 -20 -41 -4 0 -5 11 -2 25 4 23 22 36 22 16z m138 -16
c1 -14 -3 -25 -8 -25 -11 0 -14 33 -3 43 9 9 8 10 11 -18z m319 3 c-3 -8 -6
-5 -6 6 -1 11 2 17 5 13 3 -3 4 -12 1 -19z m173 1 c0 -5 -4 -9 -10 -9 -5 0
-10 7 -10 16 0 8 5 12 10 9 6 -3 10 -10 10 -16z m50 17 c0 -3 -4 -8 -10 -11
-5 -3 -10 -1 -10 4 0 6 5 11 10 11 6 0 10 -2 10 -4z m-720 -16 c0 -5 -2 -10
-4 -10 -3 0 -8 5 -11 10 -3 6 -1 10 4 10 6 0 11 -4 11 -10z m958 -14 c3 -12
-1 -17 -10 -14 -7 3 -15 13 -16 22 -3 12 1 17 10 14 7 -3 15 -13 16 -22z m89
2 c-3 -8 -6 -5 -6 6 -1 11 2 17 5 13 3 -3 4 -12 1 -19z m-967 2 c0 -5 -4 -10
-10 -10 -5 0 -10 5 -10 10 0 6 5 10 10 10 6 0 10 -4 10 -10z m-157 -30 c3 -11
1 -20 -4 -20 -5 0 -9 9 -9 20 0 11 2 20 4 20 2 0 6 -9 9 -20z m462 9 c11 -17
-1 -21 -15 -4 -8 9 -8 15 -2 15 6 0 14 -5 17 -11z m125 1 c0 -5 -4 -10 -10
-10 -5 0 -10 5 -10 10 0 6 5 10 10 10 6 0 10 -4 10 -10z m100 1 c0 -6 -4 -13
-10 -16 -5 -3 -10 1 -10 9 0 9 5 16 10 16 6 0 10 -4 10 -9z m83 -6 c4 -8 2
-17 -3 -20 -6 -4 -10 3 -10 14 0 25 6 27 13 6z m-398 -15 c3 -5 1 -10 -4 -10
-6 0 -11 5 -11 10 0 6 2 10 4 10 3 0 8 -4 11 -10z m355 -12 c0 -18 -2 -20 -9
-8 -6 8 -7 18 -5 22 9 14 14 9 14 -14z m280 12 c0 -5 -4 -10 -10 -10 -5 0 -10
5 -10 10 0 6 5 10 10 10 6 0 10 -4 10 -10z m-800 -15 c0 -8 -4 -15 -10 -15 -5
0 -7 7 -4 15 4 8 8 15 10 15 2 0 4 -7 4 -15z m736 -12 c-10 -10 -19 5 -10 18
6 11 8 11 12 0 2 -7 1 -15 -2 -18z m104 7 c0 -5 -4 -10 -10 -10 -5 0 -10 5
-10 10 0 6 5 10 10 10 6 0 10 -4 10 -10z m-889 -23 c-10 -9 -11 -8 -5 6 3 10
9 15 12 12 3 -3 0 -11 -7 -18z m3954 12 c-13 -19 156 -29 179 -10 7 6 21 10
31 9 11 0 33 3 49 7 20 5 27 5 22 -3 -4 -7 5 -10 26 -8 18 2 25 1 16 -1 -10
-2 -18 -9 -18 -15 0 -6 10 -8 22 -5 31 8 48 -10 48 -49 0 -24 5 -34 15 -34 8
0 15 -5 15 -11 0 -6 -7 -9 -15 -5 -10 4 -15 -1 -15 -15 0 -12 -11 -30 -25 -41
-14 -11 -25 -26 -25 -34 0 -8 -7 -17 -15 -20 -11 -4 -15 -21 -15 -55 0 -46 1
-49 27 -49 14 0 23 -3 19 -7 -4 -4 10 -12 30 -18 21 -5 39 -15 41 -21 4 -11
-38 -23 -86 -25 -14 0 -20 -3 -13 -6 23 -9 12 -20 -35 -33 -27 -7 -53 -17 -60
-22 -7 -6 -17 -7 -22 -4 -5 4 -12 2 -16 -4 -3 -5 -17 -10 -30 -10 -20 0 -30
-11 -54 -63 -16 -35 -33 -75 -36 -90 -4 -15 -13 -27 -20 -27 -6 0 -20 -17 -31
-37 -10 -21 -23 -41 -28 -44 -5 -4 -6 -11 -2 -17 3 -6 -3 -14 -15 -17 -14 -5
-18 -12 -14 -23 3 -9 3 -13 -1 -9 -9 8 -34 -39 -34 -64 0 -11 -4 -19 -9 -19
-5 0 -11 -9 -14 -20 -3 -12 -1 -18 5 -14 6 4 8 -1 3 -15 -4 -15 -2 -21 9 -21
8 0 18 -10 22 -22 5 -17 -1 -28 -30 -53 -20 -17 -36 -35 -36 -39 0 -5 -11 -19
-24 -31 l-23 -22 -18 34 c-10 18 -22 33 -27 33 -12 0 16 -50 47 -84 25 -27 27
-27 20 -7 l-7 23 29 -19 c15 -10 33 -24 39 -32 6 -8 20 -12 31 -9 12 3 27 2
34 -3 12 -7 11 -9 -1 -9 -10 0 -11 -3 -4 -8 18 -12 35 -72 21 -73 -7 -1 -1 -5
13 -9 l25 -8 -24 -1 c-17 -1 -22 -4 -15 -11 13 -13 64 4 64 20 0 7 6 7 21 0
22 -12 54 -6 45 9 -3 5 1 11 9 15 9 3 15 0 15 -10 0 -11 6 -13 20 -9 30 9 58
-3 63 -28 2 -12 5 1 6 30 1 47 -1 53 -31 72 -18 11 -26 21 -18 21 19 1 54 30
69 57 21 40 7 123 -24 145 -7 5 -6 14 3 28 6 11 12 31 12 44 0 14 7 31 15 40
18 18 19 38 3 54 -7 7 -20 36 -29 65 -15 48 -15 54 0 80 9 16 25 36 35 45 18
15 18 13 -2 -21 -23 -40 -22 -57 4 -57 8 0 14 -4 14 -10 0 -5 -4 -10 -10 -10
-5 0 -7 -7 -4 -15 4 -8 1 -15 -5 -15 -6 0 -11 -4 -11 -10 0 -5 7 -7 15 -4 11
4 15 -1 16 -17 1 -21 2 -21 6 -4 3 11 12 29 22 39 15 18 15 19 -4 13 -20 -7
-20 -7 -1 8 11 8 14 15 8 15 -7 0 -11 14 -11 38 1 27 3 30 6 12 6 -31 43 -70
43 -45 0 8 5 15 10 15 6 0 10 -6 10 -13 0 -7 10 -21 22 -31 20 -18 20 -20 4
-31 -16 -12 -14 -14 13 -20 17 -4 29 -11 25 -16 -3 -5 0 -9 6 -9 6 0 30 -9 53
-20 25 -12 43 -16 45 -10 2 5 12 10 22 10 10 0 22 5 26 11 3 6 15 9 25 6 12
-3 19 0 19 9 0 18 8 18 25 0 11 -10 11 -16 2 -26 -9 -10 -9 -14 1 -17 6 -3 12
-11 12 -19 0 -8 6 -11 15 -8 8 4 15 1 15 -6 0 -6 -4 -9 -9 -5 -13 7 -31 -27
-31 -57 0 -13 -5 -29 -12 -36 -9 -9 -8 -12 6 -12 22 0 13 -37 -15 -62 -10 -9
-19 -23 -19 -31 0 -8 -7 -17 -15 -21 -8 -3 -12 -12 -9 -21 3 -8 1 -15 -5 -15
-6 0 -11 4 -11 9 0 5 -9 11 -20 14 -16 4 -20 0 -20 -21 l-1 -27 -14 25 c-11
19 -14 21 -15 8 0 -17 -26 -25 -55 -18 -49 12 -50 12 -35 1 13 -10 13 -12 0
-21 -21 -14 -28 -12 -33 8 -3 10 -5 6 -6 -10 0 -16 -5 -28 -11 -28 -12 0 -13
-44 -1 -68 4 -9 13 -32 19 -49 10 -31 9 -33 -14 -33 -13 0 -24 -4 -24 -10 0
-5 5 -10 11 -10 8 0 8 -4 0 -14 -10 -11 -9 -16 4 -23 9 -5 17 -17 19 -25 1 -9
8 -23 15 -32 12 -14 11 -20 -9 -38 l-23 -22 6 32 c8 39 -9 43 -24 5 -7 -20 -6
-28 3 -35 8 -5 -1 -6 -22 -4 -22 2 -36 9 -38 20 -2 9 -12 16 -23 16 -10 0 -19
5 -19 10 0 6 5 10 11 10 6 0 9 8 7 18 -2 9 -10 17 -18 17 -10 0 -14 9 -12 27
1 16 -3 28 -13 32 -9 3 -13 2 -10 -4 3 -6 1 -10 -4 -10 -6 0 -16 9 -23 20 -13
20 -13 20 -30 -2 -14 -18 -18 -19 -18 -7 0 12 -8 15 -31 13 -25 -3 -32 0 -36
17 -4 15 -8 17 -13 8 -7 -10 -15 -9 -42 1 -18 8 -36 18 -39 23 -10 14 -50 -12
-47 -30 2 -9 -3 -18 -11 -21 -9 -3 -11 0 -7 7 6 8 0 10 -18 5 -16 -4 -26 -2
-26 5 0 6 7 8 15 5 8 -4 15 -1 15 4 0 15 -43 27 -48 13 -2 -6 -10 -11 -18 -11
-8 0 -14 -5 -14 -11 0 -17 -54 -89 -67 -89 -14 0 -33 -32 -32 -52 0 -7 5 0 11
15 8 23 15 28 32 23 11 -3 28 -6 38 -6 12 0 15 -6 11 -22 -4 -18 -2 -20 5 -9
9 13 13 13 28 0 11 -9 15 -9 10 -1 -4 6 -2 12 3 12 6 0 11 -6 11 -12 0 -7 5
-20 10 -28 9 -13 11 -13 20 0 6 10 10 11 10 3 0 -7 -13 -19 -30 -28 -26 -14
-28 -18 -18 -39 6 -14 16 -22 22 -20 6 2 16 -6 21 -18 8 -18 18 -23 43 -22 21
1 32 -3 32 -12 0 -8 10 -14 23 -14 l22 -1 -24 -20 c-23 -19 -23 -20 -5 -34 19
-13 19 -14 -1 -29 -20 -15 -20 -15 3 -16 13 0 22 6 22 15 0 17 9 19 29 6 9 -6
12 -18 7 -37 -4 -19 -3 -24 3 -15 7 11 11 9 21 -9 15 -29 10 -32 -23 -15 -29
15 -29 15 -31 -29 -1 -20 -8 -31 -23 -37 -17 -6 -23 -5 -23 6 0 11 -11 15 -42
14 -39 0 -100 -17 -70 -18 14 -1 17 -21 2 -21 -37 0 -105 115 -125 212 -4 18
-18 57 -31 86 -43 95 -71 215 -110 471 -19 130 -18 172 11 276 14 50 25 106
25 126 0 49 10 55 32 18 18 -29 22 -31 61 -25 53 9 62 17 65 62 3 46 8 54 33
54 11 0 19 7 19 17 0 11 -3 13 -9 7 -6 -5 -38 -7 -73 -5 -76 4 -53 19 32 20
40 0 61 -5 78 -18 12 -11 22 -22 22 -26 0 -4 -6 -2 -13 4 -14 11 -27 5 -27
-12 0 -6 3 -7 7 -4 8 9 33 -12 33 -28 0 -6 -11 -17 -25 -23 -24 -11 -26 -17
-16 -81 2 -10 39 37 45 57 4 12 12 20 17 17 5 -4 9 1 9 10 0 9 -4 13 -10 10
-5 -3 -10 -2 -10 4 0 5 -3 17 -7 26 -5 14 -2 16 15 10 23 -7 29 4 11 22 -7 7
-6 12 5 16 10 4 16 1 16 -8 0 -7 5 -17 11 -21 9 -5 10 8 7 45 -4 44 -11 57
-39 81 -19 16 -41 29 -49 30 -9 0 -40 6 -70 14 -30 7 -74 16 -97 19 -35 4 -43
2 -43 -11 -1 -16 -1 -16 -10 0 -7 12 -2 37 19 90 15 40 37 103 47 141 11 37
24 67 31 67 7 0 13 11 13 24 0 26 24 51 40 41 5 -3 10 2 10 12 1 25 24 53 44
53 9 0 16 8 16 20 0 13 7 20 19 20 11 0 22 4 25 9 3 4 23 8 45 8 22 0 38 -3
36 -8z m-4125 -19 c0 -5 -5 -10 -11 -10 -5 0 -7 5 -4 10 3 6 8 10 11 10 2 0 4
-4 4 -10z m130 -6 c0 -8 -4 -12 -10 -9 -5 3 -10 10 -10 16 0 5 5 9 10 9 6 0
10 -7 10 -16z m197 9 c-4 -3 -1 -13 6 -22 11 -14 10 -14 -5 -2 -21 15 -23 31
-6 31 6 0 8 -3 5 -7z m173 -25 c0 -19 -2 -20 -10 -8 -13 19 -13 30 0 30 6 0
10 -10 10 -22z m320 13 c0 -6 -4 -13 -10 -16 -5 -3 -10 1 -10 9 0 9 5 16 10
16 6 0 10 -4 10 -9z m248 -16 c-3 -3 -9 2 -12 12 -6 14 -5 15 5 6 7 -7 10 -15
7 -18z m62 5 c0 -5 -5 -10 -11 -10 -5 0 -7 5 -4 10 3 6 8 10 11 10 2 0 4 -4 4
-10z m8017 -22 c-3 -7 -5 -2 -5 12 0 14 2 19 5 13 2 -7 2 -19 0 -25z m-8687 2
c0 -5 -2 -10 -4 -10 -3 0 -8 5 -11 10 -3 6 -1 10 4 10 6 0 11 -4 11 -10z m113
-10 c-3 -11 -7 -20 -9 -20 -2 0 -4 9 -4 20 0 11 4 20 9 20 5 0 7 -9 4 -20z
m-331 -2 c-9 -9 -15 -9 -24 0 -9 9 -7 12 12 12 19 0 21 -3 12 -12z m88 -3 c0
-8 -4 -15 -10 -15 -5 0 -10 7 -10 15 0 8 5 15 10 15 6 0 10 -7 10 -15z m490
-1 c0 -8 -4 -12 -10 -9 -5 3 -10 10 -10 16 0 5 5 9 10 9 6 0 10 -7 10 -16z
m530 7 c0 -6 -4 -13 -10 -16 -5 -3 -10 1 -10 9 0 9 5 16 10 16 6 0 10 -4 10
-9z m837 -23 c-3 -7 -5 -2 -5 12 0 14 2 19 5 13 2 -7 2 -19 0 -25z m-1167 18
c0 -3 -4 -8 -10 -11 -5 -3 -10 -1 -10 4 0 6 5 11 10 11 6 0 10 -2 10 -4z
m2210 -18 c0 -18 -2 -20 -9 -8 -6 8 -7 18 -5 22 9 14 14 9 14 -14z m-3049 -15
c-12 -20 -14 -14 -5 12 4 9 9 14 11 11 3 -2 0 -13 -6 -23z m85 -5 c-1 -13 -6
-22 -9 -20 -7 2 -7 10 0 30 8 20 13 14 9 -10z m474 8 c0 -3 -4 -8 -10 -11 -5
-3 -10 -1 -10 4 0 6 5 11 10 11 6 0 10 -2 10 -4z m785 -24 c-8 -8 -25 10 -19
20 4 6 9 5 15 -3 4 -7 6 -15 4 -17z m-1385 -28 c0 -21 -4 -33 -10 -29 -5 3
-10 22 -10 41 0 21 4 33 10 29 6 -3 10 -22 10 -41z m1780 36 c0 -5 -5 -10 -11
-10 -5 0 -7 5 -4 10 3 6 8 10 11 10 2 0 4 -4 4 -10z m-1710 -16 c0 -8 -5 -12
-10 -9 -6 4 -8 11 -5 16 9 14 15 11 15 -7z m270 1 c0 -8 -4 -15 -10 -15 -5 0
-10 7 -10 15 0 8 5 15 10 15 6 0 10 -7 10 -15z m5157 -7 c-3 -8 -6 -5 -6 6 -1
11 2 17 5 13 3 -3 4 -12 1 -19z m-5461 -30 c-7 -46 -16 -46 -16 1 0 27 4 40
10 36 6 -4 9 -20 6 -37z m134 36 c0 -13 -21 -44 -30 -44 -14 0 -12 18 3 35 12
15 27 20 27 9z m2207 -26 c1 -26 -1 -29 -7 -13 -6 17 -3 45 5 45 1 0 2 -15 2
-32z m-2103 6 c8 -21 8 -24 -3 -24 -5 0 -11 9 -14 20 -6 24 8 27 17 4z m219
-9 c-7 -21 -13 -19 -13 6 0 11 4 18 10 14 5 -3 7 -12 3 -20z m-536 -7 c-3 -8
-6 -5 -6 6 -1 11 2 17 5 13 3 -3 4 -12 1 -19z m274 9 c-1 -12 -15 -9 -19 4 -3
6 1 10 8 8 6 -3 11 -8 11 -12z m339 -2 c0 -8 -4 -15 -10 -15 -5 0 -10 7 -10
15 0 8 5 15 10 15 6 0 10 -7 10 -15z m-384 -33 c-10 -11 -16 -12 -16 -4 0 7 5
12 10 12 6 0 10 8 11 18 0 11 2 13 6 4 3 -8 -2 -21 -11 -30z m-246 6 c0 -16
-3 -19 -11 -11 -6 6 -8 16 -5 22 11 17 16 13 16 -11z m370 -8 c0 -5 -4 -10
-10 -10 -5 0 -10 5 -10 10 0 6 5 10 10 10 6 0 10 -4 10 -10z m255 0 c3 -5 -1
-10 -9 -10 -9 0 -16 5 -16 10 0 6 4 10 9 10 6 0 13 -4 16 -10z m125 0 c0 -5
-10 -10 -22 -9 -22 0 -22 1 -3 9 11 5 21 9 23 9 1 1 2 -3 2 -9z m-1150 -10 c0
-5 -2 -10 -4 -10 -3 0 -8 5 -11 10 -3 6 -1 10 4 10 6 0 11 -4 11 -10z m705 0
c3 -5 1 -10 -4 -10 -6 0 -11 5 -11 10 0 6 2 10 4 10 3 0 8 -4 11 -10z m358
-15 c-3 -9 -8 -14 -10 -11 -3 3 -2 9 2 15 9 16 15 13 8 -4z m227 -5 c0 -11 -4
-20 -10 -20 -5 0 -10 9 -10 20 0 11 5 20 10 20 6 0 10 -9 10 -20z m-480 1 c0
-5 -7 -11 -14 -14 -10 -4 -13 -1 -9 9 6 15 23 19 23 5z m-360 -43 c0 -38 -5
-34 -13 10 -4 21 -3 31 3 27 6 -3 10 -20 10 -37z m136 15 c-10 -10 -19 5 -10
18 6 11 8 11 12 0 2 -7 1 -15 -2 -18z m521 5 c-3 -8 -6 -5 -6 6 -1 11 2 17 5
13 3 -3 4 -12 1 -19z m-555 -20 c-9 -9 -12 -7 -12 12 0 19 3 21 12 12 9 -9 9
-15 0 -24z m201 12 c3 -11 1 -18 -4 -14 -5 3 -9 12 -9 20 0 20 7 17 13 -6z
m-233 0 c0 -5 -8 -10 -17 -10 -15 0 -16 2 -3 10 19 12 20 12 20 0z m617 -42
c-3 -7 -5 -2 -5 12 0 14 2 19 5 13 2 -7 2 -19 0 -25z m147 -3 c-26 -19 -31 -9
-8 16 11 12 20 16 22 9 2 -6 -4 -17 -14 -25z m-575 -13 c-13 -37 -45 -46 -33
-10 6 21 35 50 42 44 1 -2 -3 -17 -9 -34z m-203 1 c-10 -10 -19 5 -10 18 6 11
8 11 12 0 2 -7 1 -15 -2 -18z m534 7 c0 -5 -5 -10 -11 -10 -6 0 -9 -7 -5 -15
3 -8 1 -15 -4 -15 -11 0 -13 11 -4 34 7 18 24 22 24 6z m-268 -15 c0 -5 -5
-11 -11 -13 -6 -2 -11 4 -11 13 0 9 5 15 11 13 6 -2 11 -8 11 -13z m215 -27
c-3 -7 -5 -2 -5 12 0 14 2 19 5 13 2 -7 2 -19 0 -25z m966 17 c4 -8 2 -17 -3
-20 -6 -4 -10 3 -10 14 0 25 6 27 13 6z m-1483 1 c0 -3 -4 -8 -10 -11 -5 -3
-10 -1 -10 4 0 6 5 11 10 11 6 0 10 -2 10 -4z m70 0 c0 -3 -4 -8 -10 -11 -5
-3 -10 -1 -10 4 0 6 5 11 10 11 6 0 10 -2 10 -4z m37 -33 c-3 -3 -11 -2 -17 2
-8 5 -7 11 2 22 12 15 13 14 16 -1 2 -10 1 -20 -1 -23z m243 21 c0 -8 -5 -12
-10 -9 -6 4 -8 11 -5 16 9 14 15 11 15 -7z m470 12 c0 -3 -4 -8 -10 -11 -5 -3
-10 -1 -10 4 0 6 5 11 10 11 6 0 10 -2 10 -4z m606 -36 c1 -22 -2 -40 -7 -40
-10 0 -12 41 -3 64 9 22 9 21 10 -24z m-849 8 c-3 -8 -6 -5 -6 6 -1 11 2 17 5
13 3 -3 4 -12 1 -19z m689 -5 c-10 -10 -19 5 -10 18 6 11 8 11 12 0 2 -7 1
-15 -2 -18z m94 23 c0 -3 -4 -8 -10 -11 -5 -3 -10 -1 -10 4 0 6 5 11 10 11 6
0 10 -2 10 -4z m-1340 -31 c0 -8 -4 -15 -10 -15 -5 0 -10 7 -10 15 0 8 5 15
10 15 6 0 10 -7 10 -15z m803 8 c-7 -2 -21 -2 -30 0 -10 3 -4 5 12 5 17 0 24
-2 18 -5z m674 -25 c-3 -8 -6 -5 -6 6 -1 11 2 17 5 13 3 -3 4 -12 1 -19z
m-1402 2 c3 -5 1 -10 -4 -10 -6 0 -11 5 -11 10 0 6 2 10 4 10 3 0 8 -4 11 -10z
m2972 -22 c-3 -8 -6 -5 -6 6 -1 11 2 17 5 13 3 -3 4 -12 1 -19z m-2790 -10
c-3 -8 -6 -5 -6 6 -1 11 2 17 5 13 3 -3 4 -12 1 -19z m327 4 c-6 -4 -16 -20
-22 -37 -6 -16 -11 -25 -11 -18 -2 22 19 63 31 63 9 0 10 -3 2 -8z m-714 -12
c0 -5 -4 -10 -10 -10 -5 0 -10 5 -10 10 0 6 5 10 10 10 6 0 10 -4 10 -10z
m1422 -12 c-7 -7 -12 -8 -12 -2 0 14 12 26 19 19 2 -3 -1 -11 -7 -17z m618 12
c0 -5 -4 -10 -10 -10 -5 0 -10 5 -10 10 0 6 5 10 10 10 6 0 10 -4 10 -10z
m3547 -12 c-3 -8 -6 -5 -6 6 -1 11 2 17 5 13 3 -3 4 -12 1 -19z m-5157 8 c0
-3 -4 -8 -10 -11 -5 -3 -10 -1 -10 4 0 6 5 11 10 11 6 0 10 -2 10 -4z m90 -6
c0 -5 -4 -10 -10 -10 -5 0 -10 5 -10 10 0 6 5 10 10 10 6 0 10 -4 10 -10z
m1617 -12 c-3 -8 -6 -5 -6 6 -1 11 2 17 5 13 3 -3 4 -12 1 -19z m-1200 -20
c-3 -7 -5 -2 -5 12 0 14 2 19 5 13 2 -7 2 -19 0 -25z m159 -5 c-11 -11 -19 6
-11 24 8 17 8 17 12 0 3 -10 2 -21 -1 -24z m-896 7 c0 -11 -4 -20 -10 -20 -5
0 -10 9 -10 20 0 11 5 20 10 20 6 0 10 -9 10 -20z m635 -22 c5 -18 3 -28 -4
-28 -6 0 -11 6 -11 13 0 6 -3 23 -6 37 -5 17 -4 22 4 15 6 -5 14 -22 17 -37z
m-378 0 c-3 -7 -5 -2 -5 12 0 14 2 19 5 13 2 -7 2 -19 0 -25z m703 22 c0 -5
-5 -10 -11 -10 -5 0 -7 5 -4 10 3 6 8 10 11 10 2 0 4 -4 4 -10z m230 -20 c0
-5 -4 -10 -10 -10 -5 0 -10 5 -10 10 0 6 5 10 10 10 6 0 10 -4 10 -10z m-1125
-9 c3 -5 1 -12 -4 -15 -5 -3 -11 1 -15 9 -6 16 9 21 19 6z m1205 -1 c0 -5 -4
-10 -10 -10 -5 0 -10 5 -10 10 0 6 5 10 10 10 6 0 10 -4 10 -10z m370 0 c0 -5
-4 -10 -10 -10 -5 0 -10 5 -10 10 0 6 5 10 10 10 6 0 10 -4 10 -10z m-1660
-10 c0 -5 -2 -10 -4 -10 -3 0 -8 5 -11 10 -3 6 -1 10 4 10 6 0 11 -4 11 -10z
m480 6 c0 -3 -4 -8 -10 -11 -5 -3 -10 -1 -10 4 0 6 5 11 10 11 6 0 10 -2 10
-4z m281 -29 c-10 -9 -11 -8 -5 6 3 10 9 15 12 12 3 -3 0 -11 -7 -18z m224 13
c3 -5 1 -10 -4 -10 -6 0 -11 5 -11 10 0 6 2 10 4 10 3 0 8 -4 11 -10z m326
-23 c-16 -16 -26 0 -10 19 9 11 15 12 17 4 2 -6 -1 -17 -7 -23z m-1161 13 c0
-5 -5 -10 -11 -10 -5 0 -7 5 -4 10 3 6 8 10 11 10 2 0 4 -4 4 -10z m4176 -10
c0 -18 -7 -20 -55 -20 -53 0 -54 1 -33 16 12 8 27 12 32 9 6 -3 10 -1 10 4 0
6 10 11 23 11 16 0 23 -6 23 -20z m-2900 -27 c-11 -11 -19 6 -11 24 8 17 8 17
12 0 3 -10 2 -21 -1 -24z m2265 21 c27 -9 49 -20 49 -25 0 -5 10 -9 23 -9 12
0 28 -9 35 -20 7 -11 8 -20 3 -20 -5 0 -11 6 -13 13 -6 15 -144 19 -173 4 -25
-12 -55 -43 -49 -50 3 -2 -2 -7 -11 -11 -21 -8 -27 11 -23 70 3 42 6 49 28 55
42 12 79 10 131 -7z m-3014 -26 c-3 -8 -6 -5 -6 6 -1 11 2 17 5 13 3 -3 4 -12
1 -19z m389 -5 c-10 -10 -19 5 -10 18 6 11 8 11 12 0 2 -7 1 -15 -2 -18z
m3214 -12 c0 -5 -20 -11 -45 -13 -51 -4 -55 -1 -22 12 29 12 67 12 67 1z
m-3700 -31 c0 -5 -4 -10 -10 -10 -5 0 -10 5 -10 10 0 6 5 10 10 10 6 0 10 -4
10 -10z m2017 -12 c-3 -8 -6 -5 -6 6 -1 11 2 17 5 13 3 -3 4 -12 1 -19z m1536
-19 c-10 -17 -19 -25 -21 -19 -2 6 1 17 8 25 6 8 9 19 5 24 -3 7 0 8 9 5 14
-5 14 -9 -1 -35z m-4501 9 c-7 -7 -12 -8 -12 -2 0 14 12 26 19 19 2 -3 -1 -11
-7 -17z m5679 -4 c22 -23 24 -34 24 -113 0 -48 -5 -99 -11 -112 -7 -13 -20
-52 -30 -86 -29 -98 -39 -58 -15 61 21 106 27 192 13 212 -4 6 -17 14 -29 18
-14 4 -23 15 -23 27 0 28 41 24 71 -7z m-3914 -6 c-3 -8 -6 -5 -6 6 -1 11 2
17 5 13 3 -3 4 -12 1 -19z m-790 -25 c-3 -10 -5 -4 -5 12 0 17 2 24 5 18 2 -7
2 -21 0 -30z m673 22 c0 -8 -4 -15 -10 -15 -5 0 -7 7 -4 15 4 8 8 15 10 15 2
0 4 -7 4 -15z m2990 5 c0 -5 -4 -10 -10 -10 -5 0 -10 5 -10 10 0 6 5 10 10 10
6 0 10 -4 10 -10z m66 2 c6 -4 15 -23 18 -42 5 -23 4 -30 -2 -21 -6 8 -11 9
-13 3 -5 -15 -59 -27 -59 -14 0 6 5 14 10 17 6 3 10 19 10 36 0 28 13 36 36
21z m-646 -22 c0 -5 -2 -10 -4 -10 -3 0 -8 5 -11 10 -3 6 -1 10 4 10 6 0 11
-4 11 -10z m-2810 -35 c0 -14 -4 -25 -10 -25 -11 0 -14 33 -3 43 11 11 13 8
13 -18z m-1230 5 c0 -5 -2 -10 -4 -10 -3 0 -8 5 -11 10 -3 6 -1 10 4 10 6 0
11 -4 11 -10z m250 6 c0 -3 -4 -8 -10 -11 -5 -3 -10 -1 -10 4 0 6 5 11 10 11
6 0 10 -2 10 -4z m2952 -44 c-7 -2 -12 -11 -12 -19 0 -9 -3 -14 -6 -10 -10 10
7 48 19 40 8 -5 8 -8 -1 -11z m805 2 c-3 -3 -12 -4 -19 -1 -8 3 -5 6 6 6 11 1
17 -2 13 -5z m-730 -26 c-3 -8 -6 -5 -6 6 -1 11 2 17 5 13 3 -3 4 -12 1 -19z
m-1977 -23 c0 -5 -5 -3 -10 5 -5 8 -10 20 -10 25 0 6 5 3 10 -5 5 -8 10 -19
10 -25z m3714 19 c9 -24 -2 -52 -24 -59 -10 -3 -21 -17 -24 -31 -6 -22 -9 -24
-22 -13 -12 10 -12 14 -2 21 10 6 10 10 -2 18 -12 7 -12 12 -2 22 9 9 12 9 12
0 0 -7 5 -12 10 -12 6 0 10 10 10 23 0 22 16 47 31 47 4 0 10 -7 13 -16z
m-3374 -8 c0 -3 -4 -8 -10 -11 -5 -3 -10 -1 -10 4 0 6 5 11 10 11 6 0 10 -2
10 -4z m60 -16 c0 -5 -4 -10 -10 -10 -5 0 -10 5 -10 10 0 6 5 10 10 10 6 0 10
-4 10 -10z m1697 -22 c-3 -8 -6 -5 -6 6 -1 11 2 17 5 13 3 -3 4 -12 1 -19z
m-1960 -40 c-3 -8 -6 -5 -6 6 -1 11 2 17 5 13 3 -3 4 -12 1 -19z m96 2 c3 -11
1 -23 -4 -26 -5 -3 -9 6 -9 20 0 31 6 34 13 6z m1967 -26 c0 -14 -4 -23 -9
-20 -5 3 -7 15 -4 26 7 28 13 25 13 -6z m-2945 -29 c2 -14 -1 -25 -6 -25 -5 0
-9 14 -9 32 0 36 11 31 15 -7z m345 -1 c0 -8 -4 -14 -10 -14 -5 0 -10 9 -10
21 0 11 5 17 10 14 6 -3 10 -13 10 -21z m-607 -21 c-7 -2 -19 -2 -25 0 -7 3
-2 5 12 5 14 0 19 -2 13 -5z m110 0 c-7 -2 -13 -11 -13 -19 0 -8 -4 -14 -10
-14 -5 0 -10 4 -10 8 0 12 22 32 35 31 5 0 4 -3 -2 -6z m37 -7 c0 -3 -4 -8
-10 -11 -5 -3 -10 -1 -10 4 0 6 5 11 10 11 6 0 10 -2 10 -4z m780 -31 c0 -8
-4 -15 -10 -15 -5 0 -7 7 -4 15 4 8 8 15 10 15 2 0 4 -7 4 -15z m506 -12 c-10
-10 -19 5 -10 18 6 11 8 11 12 0 2 -7 1 -15 -2 -18z m-1206 7 c0 -5 -4 -10
-10 -10 -5 0 -10 5 -10 10 0 6 5 10 10 10 6 0 10 -4 10 -10z m-56 -21 c-3 -5
-10 -7 -15 -3 -5 3 -7 10 -3 15 3 5 10 7 15 3 5 -3 7 -10 3 -15z m666 1 c0 -5
-4 -10 -10 -10 -5 0 -10 5 -10 10 0 6 5 10 10 10 6 0 10 -4 10 -10z m194 -5
c3 -9 0 -15 -9 -15 -8 0 -15 7 -15 15 0 8 4 15 9 15 5 0 11 -7 15 -15z m-777
-17 c-3 -8 -6 -5 -6 6 -1 11 2 17 5 13 3 -3 4 -12 1 -19z m33 12 c0 -5 -4 -10
-10 -10 -5 0 -10 5 -10 10 0 6 5 10 10 10 6 0 10 -4 10 -10z m-82 -22 c-6 -18
-28 -21 -28 -4 0 9 7 16 16 16 9 0 14 -5 12 -12z m72 -23 c0 -8 -4 -15 -10
-15 -5 0 -10 7 -10 15 0 8 5 15 10 15 6 0 10 -7 10 -15z m781 -42 c-9 -15 -10
-12 -10 17 0 29 1 32 10 18 7 -12 7 -24 0 -35z m459 37 c0 -5 -2 -10 -4 -10
-3 0 -8 5 -11 10 -3 6 -1 10 4 10 6 0 11 -4 11 -10z m-45 -9 c3 -5 1 -12 -5
-16 -5 -3 -10 1 -10 9 0 18 6 21 15 7z m-1443 -47 c-5 -42 -11 -39 -17 9 -4
27 -1 35 8 31 8 -3 11 -17 9 -40z m-64 14 c-2 -6 -10 -14 -16 -16 -7 -2 -10 2
-6 12 7 18 28 22 22 4z m4049 -10 c-3 -8 -6 -5 -6 6 -1 11 2 17 5 13 3 -3 4
-12 1 -19z m-2647 3 c0 -6 -4 -13 -10 -16 -5 -3 -10 1 -10 9 0 9 5 16 10 16 6
0 10 -4 10 -9z m-1300 -46 c-7 -8 -16 -12 -21 -10 -4 3 -1 14 9 23 20 20 30 9
12 -13z m111 2 c-8 -8 -11 -7 -11 4 0 20 13 34 18 19 3 -7 -1 -17 -7 -23z
m519 23 c0 -5 -5 -10 -11 -10 -5 0 -7 5 -4 10 3 6 8 10 11 10 2 0 4 -4 4 -10z
m1022 -20 c4 -27 3 -29 -10 -16 -8 8 -12 22 -9 30 9 23 14 20 19 -14z m2299
-7 c-8 -15 -10 -15 -11 -2 0 17 10 32 18 25 2 -3 -1 -13 -7 -23z m-3706 -3 c3
-5 1 -10 -4 -10 -6 0 -11 5 -11 10 0 6 2 10 4 10 3 0 8 -4 11 -10z m1225 -10
c0 -5 -4 -10 -10 -10 -5 0 -10 5 -10 10 0 6 5 10 10 10 6 0 10 -4 10 -10z
m-188 -22 c-7 -7 -12 -8 -12 -2 0 14 12 26 19 19 2 -3 -1 -11 -7 -17z m-1212
4 c0 -13 -12 -22 -22 -16 -10 6 -1 24 13 24 5 0 9 -4 9 -8z m100 -2 c0 -5 -2
-10 -4 -10 -3 0 -8 5 -11 10 -3 6 -1 10 4 10 6 0 11 -4 11 -10z m183 -5 c-3
-9 -8 -14 -10 -11 -3 3 -2 9 2 15 9 16 15 13 8 -4z m474 9 c-3 -3 -12 -4 -19
-1 -8 3 -5 6 6 6 11 1 17 -2 13 -5z m-634 -19 c-3 -9 -8 -14 -10 -11 -3 3 -2
9 2 15 9 16 15 13 8 -4z m474 -37 c-3 -8 -6 -5 -6 6 -1 11 2 17 5 13 3 -3 4
-12 1 -19z m503 1 c0 -5 -4 -9 -10 -9 -5 0 -10 7 -10 16 0 8 5 12 10 9 6 -3
10 -10 10 -16z m-1000 -11 c0 -13 -4 -29 -9 -37 -6 -10 -9 -2 -8 22 1 39 17
53 17 15z m1867 0 c-3 -8 -6 -5 -6 6 -1 11 2 17 5 13 3 -3 4 -12 1 -19z
m-1983 -31 c-6 -17 -34 -31 -34 -17 0 5 5 12 10 15 6 3 10 16 10 28 1 19 2 20
10 5 6 -9 7 -23 4 -31z m-44 9 c0 -8 -4 -18 -10 -21 -5 -3 -10 3 -10 14 0 12
5 21 10 21 6 0 10 -6 10 -14z m720 -32 c0 -8 -5 -12 -10 -9 -6 4 -8 11 -5 16
9 14 15 11 15 -7z m-40 -19 c5 3 11 1 15 -5 8 -13 -25 -13 -45 0 -13 9 -13 11
0 20 11 7 16 5 18 -5 2 -9 7 -13 12 -10z m-636 -4 c6 -10 -43 -25 -52 -16 -3
3 2 5 11 5 10 0 17 5 17 10 0 12 17 13 24 1z m136 -20 c0 -6 -4 -13 -10 -16
-5 -3 -10 1 -10 9 0 9 5 16 10 16 6 0 10 -4 10 -9z m467 3 c-3 -3 -12 -4 -19
-1 -8 3 -5 6 6 6 11 1 17 -2 13 -5z m180 -16 c-3 -8 -6 -5 -6 6 -1 11 2 17 5
13 3 -3 4 -12 1 -19z m-517 -3 c0 -8 -7 -15 -15 -15 -16 0 -20 12 -8 23 11 12
23 8 23 -8z m460 -4 c0 -12 -20 -25 -27 -18 -7 7 6 27 18 27 5 0 9 -4 9 -9z
m402 -23 c-9 -9 -12 -7 -12 12 0 19 3 21 12 12 9 -9 9 -15 0 -24z m-1087 3 c3
-5 1 -12 -5 -16 -5 -3 -10 1 -10 9 0 18 6 21 15 7z m2455 -1 c0 -5 -4 -10 -10
-10 -5 0 -10 5 -10 10 0 6 5 10 10 10 6 0 10 -4 10 -10z m-2523 -22 c-3 -8 -6
-5 -6 6 -1 11 2 17 5 13 3 -3 4 -12 1 -19z m1233 12 c0 -5 -5 -10 -11 -10 -5
0 -7 5 -4 10 3 6 8 10 11 10 2 0 4 -4 4 -10z m-40 -10 c0 -5 -5 -10 -11 -10
-5 0 -7 5 -4 10 3 6 8 10 11 10 2 0 4 -4 4 -10z m-530 -14 c0 -3 -4 -8 -10
-11 -5 -3 -10 -1 -10 4 0 6 5 11 10 11 6 0 10 -2 10 -4z m-493 -48 c-3 -8 -6
-5 -6 6 -1 11 2 17 5 13 3 -3 4 -12 1 -19z m523 -18 c0 -5 -5 -10 -11 -10 -5
0 -7 5 -4 10 3 6 8 10 11 10 2 0 4 -4 4 -10z m-445 -38 c0 -12 -4 -21 -10 -20
-5 1 -9 8 -7 15 2 7 -4 13 -13 13 -8 0 -15 4 -15 8 0 5 10 8 23 7 15 -1 22 -8
22 -23z m575 13 c0 -8 -2 -15 -4 -15 -2 0 -6 7 -10 15 -3 8 -1 15 4 15 6 0 10
-7 10 -15z m27 -17 c-3 -7 -5 -2 -5 12 0 14 2 19 5 13 2 -7 2 -19 0 -25z
m2990 0 c-3 -7 -5 -2 -5 12 0 14 2 19 5 13 2 -7 2 -19 0 -25z m-3892 12 c3 -5
1 -10 -4 -10 -6 0 -11 5 -11 10 0 6 2 10 4 10 3 0 8 -4 11 -10z m85 -5 c0 -8
-4 -15 -10 -15 -5 0 -10 7 -10 15 0 8 5 15 10 15 6 0 10 -7 10 -15z m1455 6
c3 -5 1 -12 -5 -16 -5 -3 -10 1 -10 9 0 18 6 21 15 7z m-265 -15 c0 -3 -4 -8
-10 -11 -5 -3 -10 -1 -10 4 0 6 5 11 10 11 6 0 10 -2 10 -4z m86 -43 c-11 -11
-19 6 -11 24 8 17 8 17 12 0 3 -10 2 -21 -1 -24z m-1102 12 c3 -9 0 -15 -9
-15 -8 0 -15 7 -15 15 0 8 4 15 9 15 5 0 11 -7 15 -15z m-164 -5 c0 -5 -5 -10
-11 -10 -5 0 -7 5 -4 10 3 6 8 10 11 10 2 0 4 -4 4 -10z m1330 -26 c0 -8 -5
-12 -10 -9 -6 4 -8 11 -5 16 9 14 15 11 15 -7z m-1213 -27 c-8 -18 -20 -27
-35 -27 -23 0 -23 0 -5 25 10 13 24 22 31 20 6 -2 12 1 12 7 0 6 2 9 5 6 3 -2
-1 -16 -8 -31z m363 23 c0 -5 -4 -10 -10 -10 -5 0 -10 5 -10 10 0 6 5 10 10
10 6 0 10 -4 10 -10z m600 0 c0 -5 -5 -10 -11 -10 -5 0 -7 5 -4 10 3 6 8 10
11 10 2 0 4 -4 4 -10z m-1033 -22 c-3 -8 -6 -5 -6 6 -1 11 2 17 5 13 3 -3 4
-12 1 -19z m168 13 c3 -5 1 -12 -5 -16 -5 -3 -10 1 -10 9 0 18 6 21 15 7z m95
-6 c7 -9 8 -15 2 -15 -5 0 -12 7 -16 15 -3 8 -4 15 -2 15 2 0 9 -7 16 -15z
m876 -1 c-3 -9 -6 -22 -6 -30 0 -8 -4 -14 -10 -14 -11 0 -14 43 -3 53 12 13
25 7 19 -9z m94 -4 c0 -5 -8 -6 -17 -3 -12 5 -15 2 -10 -10 3 -9 2 -19 -3 -22
-14 -9 -12 29 2 43 12 12 28 7 28 -8z m-1250 -10 c0 -5 -7 -10 -15 -10 -8 0
-15 5 -15 10 0 6 7 10 15 10 8 0 15 -4 15 -10z m1421 -13 c-13 -13 -26 -3 -16
12 3 6 11 8 17 5 6 -4 6 -10 -1 -17z m-1491 3 c0 -5 -5 -10 -11 -10 -5 0 -7 5
-4 10 3 6 8 10 11 10 2 0 4 -4 4 -10z m220 6 c0 -3 -4 -8 -10 -11 -5 -3 -10
-1 -10 4 0 6 5 11 10 11 6 0 10 -2 10 -4z m660 -6 c0 -5 -4 -10 -10 -10 -5 0
-10 5 -10 10 0 6 5 10 10 10 6 0 10 -4 10 -10z m380 -32 c0 -5 -4 -8 -10 -8
-5 0 -10 10 -10 23 0 18 2 19 10 7 5 -8 10 -18 10 -22z m-90 7 c-12 -15 -30
-12 -30 6 0 5 10 9 21 9 18 0 19 -2 9 -15z m-1000 -7 c0 -19 -14 -38 -29 -37
-10 0 -11 2 -3 6 19 8 14 23 -9 23 -11 0 -18 3 -16 8 6 9 57 10 57 0z m65 3
c3 -5 1 -12 -5 -16 -5 -3 -10 1 -10 9 0 18 6 21 15 7z m881 -18 c-10 -10 -19
5 -10 18 6 11 8 11 12 0 2 -7 1 -15 -2 -18z m239 17 c3 -5 1 -10 -4 -10 -6 0
-11 5 -11 10 0 6 2 10 4 10 3 0 8 -4 11 -10z m495 -38 c0 -7 -4 -10 -10 -7 -5
3 -10 16 -10 28 0 18 2 19 10 7 5 -8 10 -21 10 -28z m2323 4 c5 5 4 -7 -3 -36
-2 -11 -30 35 -30 49 1 14 3 13 14 -1 7 -10 16 -15 19 -12z m-3503 4 c0 -5 -5
-10 -11 -10 -5 0 -7 5 -4 10 3 6 8 10 11 10 2 0 4 -4 4 -10z m602 -12 c-7 -7
-12 -8 -12 -2 0 14 12 26 19 19 2 -3 -1 -11 -7 -17z m-29 -9 c-4 -16 -8 -17
-14 -7 -13 19 -11 28 5 28 9 0 12 -7 9 -21z m2887 -1 c-1 -22 -1 -23 -15 -4
-15 20 -15 20 -15 0 0 -10 -5 -26 -10 -34 -7 -11 -10 -5 -10 23 0 33 3 37 25
37 19 0 25 -5 25 -22z m-4025 2 c3 -5 -1 -10 -9 -10 -9 0 -16 5 -16 10 0 6 4
10 9 10 6 0 13 -4 16 -10z m3965 -35 c0 -6 -11 -21 -25 -33 -37 -32 -63 -28
-30 4 8 9 15 29 15 45 0 28 1 28 20 12 11 -10 20 -22 20 -28z m-3923 29 c-3
-3 -12 -4 -19 -1 -8 3 -5 6 6 6 11 1 17 -2 13 -5z m1056 -14 c3 -11 1 -18 -4
-14 -5 3 -9 12 -9 20 0 20 7 17 13 -6z m-29 -21 c-3 -5 -10 -7 -15 -3 -5 3 -7
10 -3 15 3 5 10 7 15 3 5 -3 7 -10 3 -15z m-944 1 c0 -5 -7 -10 -15 -10 -8 0
-15 -5 -15 -12 0 -6 -3 -8 -6 -5 -8 8 14 37 27 37 5 0 9 -4 9 -10z m480 6 c0
-3 -4 -8 -10 -11 -5 -3 -10 -1 -10 4 0 6 5 11 10 11 6 0 10 -2 10 -4z m-695
-55 c-2 -35 -15 -36 -15 -2 0 18 4 30 8 27 5 -3 8 -14 7 -25z m211 -8 c-10
-10 -19 5 -10 18 6 11 8 11 12 0 2 -7 1 -15 -2 -18z m494 17 c0 -5 -2 -10 -4
-10 -3 0 -8 5 -11 10 -3 6 -1 10 4 10 6 0 11 -4 11 -10z m967 -32 c-3 -7 -5
-2 -5 12 0 14 2 19 5 13 2 -7 2 -19 0 -25z m-1717 18 c0 -3 -4 -8 -10 -11 -5
-3 -10 -1 -10 4 0 6 5 11 10 11 6 0 10 -2 10 -4z m720 -10 c0 -3 -4 -8 -10
-11 -5 -3 -10 -1 -10 4 0 6 5 11 10 11 6 0 10 -2 10 -4z m4305 -6 c-3 -5 -12
-7 -20 -3 -21 7 -19 13 6 13 11 0 18 -4 14 -10z m-3855 -25 c0 -8 -4 -17 -10
-20 -6 -4 -10 5 -10 20 0 15 4 24 10 20 6 -3 10 -12 10 -20z m227 -7 c-3 -8
-6 -5 -6 6 -1 11 2 17 5 13 3 -3 4 -12 1 -19z m-1200 -20 c-3 -8 -6 -5 -6 6
-1 11 2 17 5 13 3 -3 4 -12 1 -19z m1258 -17 c-3 -12 -11 -19 -16 -16 -5 4 -5
14 2 26 13 26 23 18 14 -10z m-705 9 c0 -5 -2 -10 -4 -10 -3 0 -8 5 -11 10 -3
6 -1 10 4 10 6 0 11 -4 11 -10z m77 -32 c-3 -8 -6 -5 -6 6 -1 11 2 17 5 13 3
-3 4 -12 1 -19z m-477 2 c0 -5 -4 -10 -10 -10 -5 0 -10 5 -10 10 0 6 5 10 10
10 6 0 10 -4 10 -10z m3460 -4 c-7 -7 -13 -7 -20 0 -6 6 -3 10 10 10 13 0 16
-4 10 -10z m-2573 -28 c-3 -7 -5 -2 -5 12 0 14 2 19 5 13 2 -7 2 -19 0 -25z
m183 28 c0 -3 -4 -8 -10 -11 -5 -3 -10 -1 -10 4 0 6 5 11 10 11 6 0 10 -2 10
-4z m-14 -52 c-4 -9 -9 -15 -11 -12 -3 3 -3 13 1 22 4 9 9 15 11 12 3 -3 3
-13 -1 -22z m1190 0 c-4 -9 -9 -15 -11 -12 -3 3 -3 13 1 22 4 9 9 15 11 12 3
-3 3 -13 -1 -22z m1071 -16 c-3 -7 -5 -2 -5 12 0 14 2 19 5 13 2 -7 2 -19 0
-25z m99 -38 c-1 -39 4 -74 10 -78 5 -4 20 -24 33 -44 64 -106 298 -259 508
-333 49 -18 55 -18 85 -3 33 17 33 17 6 17 -34 1 -180 57 -285 110 -45 23 -85
41 -89 41 -11 0 -128 87 -156 116 -15 16 -34 46 -42 66 -20 46 -22 148 -3 148
6 0 59 -7 117 -15 70 -9 108 -19 116 -29 6 -9 18 -16 26 -16 22 0 79 -30 85
-45 2 -8 11 -11 19 -8 8 3 14 0 14 -6 0 -6 8 -11 18 -11 21 0 118 -61 120 -75
1 -5 10 -11 22 -13 23 -4 25 -13 8 -30 -10 -10 -10 -14 0 -21 7 -4 10 -15 7
-23 -5 -11 2 -19 22 -26 20 -8 23 -11 9 -11 -30 -1 -8 -16 27 -18 55 -3 66 -6
61 -15 -3 -4 -13 -8 -22 -9 -9 0 1 -9 23 -20 l40 -19 -45 6 c-25 4 -42 3 -38
-1 4 -4 17 -8 29 -9 12 0 24 -7 27 -15 3 -8 0 -11 -5 -8 -5 3 -15 1 -23 -4
-29 -21 64 0 138 31 118 48 197 99 254 164 29 33 39 25 10 -9 -29 -35 -120
-102 -170 -127 -26 -13 -48 -26 -50 -30 -2 -5 -11 -8 -20 -8 -16 -1 -94 -39
-81 -40 7 0 66 23 116 46 40 18 42 18 40 -6 -1 -20 -17 -29 -17 -10 0 6 -5 10
-11 10 -5 0 -7 -4 -4 -10 3 -5 1 -10 -5 -10 -6 0 -8 -5 -4 -11 5 -8 -1 -10
-18 -7 -20 4 -24 1 -21 -12 3 -9 -8 -31 -22 -48 -30 -36 -11 -47 20 -12 14 15
21 17 32 9 10 -9 13 -7 13 10 0 11 5 21 10 21 6 0 10 -5 10 -11 0 -6 7 -17 15
-25 17 -18 10 -41 -16 -49 -10 -4 -19 -13 -19 -21 0 -8 -4 -14 -10 -14 -5 0
-10 4 -10 9 0 6 -9 9 -20 8 -11 -1 -20 -5 -20 -9 0 -4 9 -8 20 -8 11 0 20 -4
20 -10 0 -5 -9 -10 -19 -10 -11 0 -22 -4 -26 -9 -3 -6 8 -6 27 -1 54 14 124
20 107 9 -7 -5 -22 -9 -31 -9 -10 0 -18 -4 -18 -10 0 -13 37 -13 45 1 4 6 13
8 21 5 20 -8 61 10 107 46 51 41 37 13 -30 -59 -61 -66 -160 -115 -297 -148
-55 -14 -111 -25 -123 -25 -13 0 -46 -23 -80 -54 -52 -49 -56 -56 -42 -68 9
-7 31 -34 48 -60 19 -28 40 -49 51 -49 11 -1 25 -3 30 -4 6 -1 18 -3 27 -4 9
0 14 -4 10 -7 -3 -3 -2 -17 3 -30 11 -28 8 -30 -93 -64 -66 -23 -67 -23 -81
-4 -8 10 -20 40 -26 67 -9 35 -20 52 -41 64 -35 21 -36 30 -4 55 21 16 25 28
25 68 0 75 12 95 64 111 25 7 46 17 46 21 0 16 -36 43 -52 40 -12 -2 -15 2
-11 19 5 19 4 20 -15 10 -11 -6 -22 -16 -25 -23 -2 -8 -8 -9 -13 -4 -5 5 -4
11 4 13 17 6 15 23 -3 23 -8 0 -15 -7 -15 -15 0 -8 -9 -15 -20 -15 -11 0 -23
7 -26 15 -4 8 -12 15 -20 15 -7 0 -64 25 -126 55 -131 63 -169 99 -241 229
-35 63 -49 102 -58 157 -15 96 -5 299 15 299 2 0 2 -32 2 -70z m-3576 50 c0
-5 -5 -10 -11 -10 -5 0 -7 5 -4 10 3 6 8 10 11 10 2 0 4 -4 4 -10z m1048 -15
c-3 -3 -9 2 -12 12 -6 14 -5 15 5 6 7 -7 10 -15 7 -18z m-38 5 c0 -5 -4 -10
-10 -10 -5 0 -10 5 -10 10 0 6 5 10 10 10 6 0 10 -4 10 -10z m150 -10 c0 -5
-4 -10 -10 -10 -5 0 -10 5 -10 10 0 6 5 10 10 10 6 0 10 -4 10 -10z m-170 -20
c0 -5 -5 -10 -11 -10 -5 0 -7 5 -4 10 3 6 8 10 11 10 2 0 4 -4 4 -10z m2410 0
c0 -5 -5 -10 -11 -10 -5 0 -7 5 -4 10 3 6 8 10 11 10 2 0 4 -4 4 -10z m50 -4
c0 -2 -12 -11 -27 -20 l-28 -17 24 20 c23 21 31 25 31 17z m-160 -88 c0 -19
-16 -5 -17 14 -2 18 0 20 7 8 5 -8 10 -18 10 -22z m-3290 2 c0 -5 -4 -10 -10
-10 -5 0 -10 5 -10 10 0 6 5 10 10 10 6 0 10 -4 10 -10z m1530 -36 c0 -8 -5
-12 -10 -9 -6 4 -8 11 -5 16 9 14 15 11 15 -7z m-1420 -29 c0 -8 -4 -15 -9
-15 -5 0 -11 7 -15 15 -3 9 0 15 9 15 8 0 15 -7 15 -15z m1437 -45 c-17 -28
-29 -25 -15 5 6 13 15 22 19 19 5 -3 3 -14 -4 -24z m163 20 c0 -5 -4 -10 -10
-10 -5 0 -10 5 -10 10 0 6 5 10 10 10 6 0 10 -4 10 -10z m-33 -62 c-3 -8 -6
-5 -6 6 -1 11 2 17 5 13 3 -3 4 -12 1 -19z m1260 -10 c-3 -8 -6 -5 -6 6 -1 11
2 17 5 13 3 -3 4 -12 1 -19z m-60 -50 c-3 -8 -6 -5 -6 6 -1 11 2 17 5 13 3 -3
4 -12 1 -19z m-3022 2 c3 -5 1 -10 -4 -10 -6 0 -11 5 -11 10 0 6 2 10 4 10 3
0 8 -4 11 -10z m2995 -10 c0 -5 -4 -10 -10 -10 -5 0 -10 5 -10 10 0 6 5 10 10
10 6 0 10 -4 10 -10z m1785 -10 c-3 -5 -16 -15 -28 -21 -21 -10 -21 -9 2 10
25 23 36 27 26 11z m-70 -40 c3 -5 -1 -10 -10 -10 -9 0 -13 5 -10 10 3 6 8 10
10 10 2 0 7 -4 10 -10z m-4485 -4 c0 -3 -4 -8 -10 -11 -5 -3 -10 -1 -10 4 0 6
5 11 10 11 6 0 10 -2 10 -4z m2157 -38 c-3 -8 -6 -5 -6 6 -1 11 2 17 5 13 3
-3 4 -12 1 -19z m-2187 -3 c0 -8 -4 -15 -10 -15 -5 0 -10 7 -10 15 0 8 5 15
10 15 6 0 10 -7 10 -15z m4625 -35 c-3 -5 -11 -10 -16 -10 -6 0 -7 5 -4 10 3
6 11 10 16 10 6 0 7 -4 4 -10z m-3875 -10 c0 -5 -2 -10 -4 -10 -3 0 -8 5 -11
10 -3 6 -1 10 4 10 6 0 11 -4 11 -10z m3745 0 c-3 -5 -12 -7 -20 -3 -21 7 -19
13 6 13 11 0 18 -4 14 -10z m-4378 -32 c-3 -8 -6 -5 -6 6 -1 11 2 17 5 13 3
-3 4 -12 1 -19z m108 -48 c-3 -5 -12 -7 -20 -3 -21 7 -19 13 6 13 11 0 18 -4
14 -10z m4401 -28 c-17 -16 -18 -16 -5 5 7 12 15 20 18 17 3 -2 -3 -12 -13
-22z m-4656 4 c0 -3 -4 -8 -10 -11 -5 -3 -10 -1 -10 4 0 6 5 11 10 11 6 0 10
-2 10 -4z m97 -42 c-3 -3 -12 -4 -19 -1 -8 3 -5 6 6 6 11 1 17 -2 13 -5z m597
-19 c-4 -8 -10 -12 -15 -9 -14 8 -10 24 6 24 9 0 12 -6 9 -15z m2786 -11 c0
-8 -4 -12 -10 -9 -5 3 -10 10 -10 16 0 5 5 9 10 9 6 0 10 -7 10 -16z m-3020
-30 c0 -8 -5 -12 -10 -9 -6 4 -8 11 -5 16 9 14 15 11 15 -7z m3060 -41 c0 -7
-4 -13 -10 -13 -5 0 -10 6 -10 14 0 8 -3 23 -6 33 -6 16 -5 16 9 -2 9 -11 17
-26 17 -32z m-2740 17 c0 -5 -4 -10 -10 -10 -5 0 -10 5 -10 10 0 6 5 10 10 10
6 0 10 -4 10 -10z m4810 -20 c18 -12 2 -12 -25 0 -13 6 -15 9 -5 9 8 0 22 -4
30 -9z m-4960 -15 c0 -8 -4 -15 -10 -15 -5 0 -10 7 -10 15 0 8 5 15 10 15 6 0
10 -7 10 -15z m101 -54 c7 11 9 9 9 -8 0 -17 -4 -20 -21 -16 -15 4 -19 11 -15
27 3 11 7 30 8 41 1 11 3 2 5 -19 3 -29 7 -36 14 -25z m2866 37 c-3 -8 -6 -5
-6 6 -1 11 2 17 5 13 3 -3 4 -12 1 -19z m-2797 -9 c0 -5 -4 -9 -10 -9 -5 0
-10 7 -10 16 0 8 5 12 10 9 6 -3 10 -10 10 -16z m2750 11 c0 -5 -5 -10 -11
-10 -5 0 -7 5 -4 10 3 6 8 10 11 10 2 0 4 -4 4 -10z m124 -46 c0 -21 -4 -39
-11 -41 -8 -3 -10 6 -6 31 3 22 2 36 -5 36 -5 0 -9 -7 -8 -16 0 -9 -5 -19 -11
-21 -18 -6 -16 13 3 43 21 32 36 19 38 -32z m-3014 12 c0 -3 -4 -8 -10 -11 -5
-3 -10 -1 -10 4 0 6 5 11 10 11 6 0 10 -2 10 -4z m600 -22 c0 -8 -4 -12 -10
-9 -5 3 -10 10 -10 16 0 5 5 9 10 9 6 0 10 -7 10 -16z m2457 -96 c-2 -13 -4
-5 -4 17 -1 22 1 32 4 23 2 -10 2 -28 0 -40z m586 25 c3 -5 -9 -9 -26 -10 -26
-1 -28 0 -12 7 26 11 33 12 38 3z m-1425 -36 c2 -10 -3 -17 -11 -17 -16 0 -30
24 -19 34 10 10 27 1 30 -17z m1362 13 c0 -5 -4 -10 -10 -10 -5 0 -10 -11 -10
-25 0 -18 7 -26 24 -31 29 -7 79 23 72 42 -3 7 0 16 5 20 7 4 9 -4 7 -21 -4
-35 -70 -75 -96 -59 -20 13 -26 36 -18 70 6 23 26 34 26 14z m-3690 -51 c0
-11 -4 -18 -10 -14 -5 3 -7 12 -3 20 7 21 13 19 13 -6z m2322 -29 c-3 -27 -9
-40 -19 -40 -11 0 -14 6 -9 23 3 12 6 30 6 40 0 9 6 17 13 17 9 0 11 -12 9
-40z m229 23 c10 -70 10 -73 -19 -72 -23 2 -24 2 -4 6 23 5 31 23 10 23 -9 0
-8 4 2 10 13 8 12 10 -2 10 -10 0 -18 7 -18 15 0 15 29 22 31 8z m-1731 -13
c0 -5 -4 -10 -10 -10 -5 0 -10 5 -10 10 0 6 5 10 10 10 6 0 10 -4 10 -10z
m910 -4 c0 -3 -4 -8 -10 -11 -5 -3 -10 -1 -10 4 0 6 5 11 10 11 6 0 10 -2 10
-4z m-48 -48 c-7 -7 -12 -8 -12 -2 0 14 12 26 19 19 2 -3 -1 -11 -7 -17z m68
8 c0 -3 -4 -8 -10 -11 -5 -3 -10 -1 -10 4 0 6 5 11 10 11 6 0 10 -2 10 -4z
m-3013 -12 c-3 -3 -12 -4 -19 -1 -8 3 -5 6 6 6 11 1 17 -2 13 -5z m1390 0 c-3
-3 -12 -4 -19 -1 -8 3 -5 6 6 6 11 1 17 -2 13 -5z m1574 -37 c-13 -12 -20 -15
-16 -7 14 26 28 41 33 35 3 -3 -5 -16 -17 -28z m617 21 c-7 -19 -35 -21 -35
-3 0 8 9 15 20 15 10 0 17 -5 15 -12z m-3621 -33 c-13 -13 -16 -13 -21 0 -3 8
3 19 12 24 22 13 28 -4 9 -24z m2273 26 c0 -6 -4 -13 -10 -16 -5 -3 -10 1 -10
9 0 9 5 16 10 16 6 0 10 -4 10 -9z m770 -16 c-7 -8 -17 -15 -23 -15 -5 0 -2 9
8 20 21 23 35 19 15 -5z m803 18 c-7 -2 -19 -2 -25 0 -7 3 -2 5 12 5 14 0 19
-2 13 -5z m1338 -19 c-47 -21 -91 -29 -91 -16 0 6 24 15 53 20 72 13 77 13 38
-4z m-1338 -1 c-7 -2 -19 -2 -25 0 -7 3 -2 5 12 5 14 0 19 -2 13 -5z m-236 -9
c-3 -3 -12 -4 -19 -1 -8 3 -5 6 6 6 11 1 17 -2 13 -5z m230 -10 c-3 -3 -12 -4
-19 -1 -8 3 -5 6 6 6 11 1 17 -2 13 -5z m-3807 -18 c0 -8 -4 -18 -10 -21 -5
-3 -10 3 -10 14 0 12 5 21 10 21 6 0 10 -6 10 -14z m3580 4 c0 -5 -7 -10 -15
-10 -8 0 -15 5 -15 10 0 6 7 10 15 10 8 0 15 -4 15 -10z m-103 -22 c-3 -8 -6
-5 -6 6 -1 11 2 17 5 13 3 -3 4 -12 1 -19z m333 12 c0 -5 -8 -10 -17 -10 -15
0 -16 2 -3 10 19 12 20 12 20 0z m-1200 -8 c0 -13 -12 -22 -22 -16 -10 6 -1
24 13 24 5 0 9 -4 9 -8z m967 -8 c-3 -3 -12 -4 -19 -1 -8 3 -5 6 6 6 11 1 17
-2 13 -5z m-3427 -14 c0 -5 -2 -10 -4 -10 -3 0 -8 5 -11 10 -3 6 -1 10 4 10 6
0 11 -4 11 -10z m3657 4 c-3 -3 -12 -4 -19 -1 -8 3 -5 6 6 6 11 1 17 -2 13 -5z
m-234 -11 c-7 -2 -19 -2 -25 0 -7 3 -2 5 12 5 14 0 19 -2 13 -5z m234 -9 c-3
-3 -12 -4 -19 -1 -8 3 -5 6 6 6 11 1 17 -2 13 -5z m-1327 -25 c0 -11 -4 -17
-10 -14 -5 3 -10 13 -10 21 0 8 5 14 10 14 6 0 10 -9 10 -21z m1087 15 c-3 -3
-12 -4 -19 -1 -8 3 -5 6 6 6 11 1 17 -2 13 -5z m243 -8 c0 -11 -19 -15 -25 -6
-3 5 1 10 9 10 9 0 16 -2 16 -4z m-3860 -22 c0 -17 -22 -14 -28 4 -2 7 3 12
12 12 9 0 16 -7 16 -16z m116 1 c9 -8 12 -19 9 -25 -8 -14 -62 -13 -71 1 -4 8
3 9 25 4 20 -4 31 -3 31 4 0 6 -7 11 -16 11 -8 0 -12 5 -9 10 8 13 14 13 31
-5z m2797 2 c3 -8 1 -20 -4 -28 -6 -10 -9 -7 -9 14 0 29 5 35 13 14z m707 3
c0 -5 -7 -10 -15 -10 -8 0 -15 5 -15 10 0 6 7 10 15 10 8 0 15 -4 15 -10z
m354 4 c13 -5 14 -9 5 -20 -16 -20 -25 -17 -25 6 0 11 1 20 2 20 1 0 10 -3 18
-6z m-37 -37 c-3 -8 -16 -17 -29 -20 -21 -5 -21 -5 -5 7 9 7 17 21 17 32 0 13
3 15 11 7 7 -7 9 -18 6 -26z m-270 -8 c-16 -25 -25 -24 -22 4 3 28 2 27 20 21
11 -5 12 -10 2 -25z m-57 6 c0 -8 -7 -15 -15 -15 -9 0 -12 6 -9 15 4 8 10 15
15 15 5 0 9 -7 9 -15z m-3173 -17 c-3 -8 -6 -5 -6 6 -1 11 2 17 5 13 3 -3 4
-12 1 -19z m3410 16 c-3 -3 -12 -4 -19 -1 -8 3 -5 6 6 6 11 1 17 -2 13 -5z
m-2047 -19 c0 -8 -9 -15 -20 -15 -25 0 -26 17 -2 23 9 3 18 5 20 6 1 0 2 -6 2
-14z m2047 -1 c-3 -3 -12 -4 -19 -1 -8 3 -5 6 6 6 11 1 17 -2 13 -5z m-3726
-63 c-30 -30 -36 -26 -12 8 12 16 22 35 22 43 1 7 4 3 6 -9 3 -13 -4 -30 -16
-42z m3489 39 c0 -11 -7 -20 -15 -20 -8 0 -15 5 -15 10 0 6 6 10 13 10 8 0 7
4 -3 10 -13 8 -12 10 3 10 10 0 17 -8 17 -20z m-3085 -19 c-6 -5 -25 10 -25
20 0 5 6 4 14 -3 8 -7 12 -15 11 -17z m2549 -179 c4 -51 3 -81 -3 -78 -10 7
-18 75 -25 206 l-4 85 13 -65 c7 -36 15 -102 19 -148z m773 202 c-3 -3 -12 -4
-19 -1 -8 3 -5 6 6 6 11 1 17 -2 13 -5z m-854 -163 c-1 -2 -3 4 -3 15 -1 18
-1 18 -16 -1 -15 -19 -16 -18 -11 15 3 19 9 58 14 85 l8 50 6 -80 c3 -44 4
-82 2 -84z m847 139 c0 -5 -4 -10 -10 -10 -5 0 -10 5 -10 10 0 6 5 10 10 10 6
0 10 -4 10 -10z m-899 -36 c-9 -28 -9 -29 -10 -3 -1 14 2 29 6 32 11 12 13 2
4 -29z m666 11 c0 -8 -8 -15 -17 -15 -9 0 -17 7 -17 15 0 8 8 15 17 15 9 0 17
-7 17 -15z m-3590 -1 c-3 -3 -12 -4 -19 -1 -8 3 -5 6 6 6 11 1 17 -2 13 -5z
m143 -6 c0 -7 -5 -20 -10 -28 -8 -12 -10 -9 -10 13 0 15 5 27 10 27 6 0 10 -6
10 -12z m6777 -20 c-3 -7 -5 -2 -5 12 0 14 2 19 5 13 2 -7 2 -19 0 -25z
m-6327 1 c0 -5 -4 -9 -10 -9 -5 0 -10 7 -10 16 0 8 5 12 10 9 6 -3 10 -10 10
-16z m-490 -14 c0 -39 -57 -101 -76 -82 -10 9 6 47 20 47 7 0 18 11 24 25 13
27 32 34 32 10z m3480 -5 c0 -11 -6 -20 -12 -20 -9 0 -8 -4 2 -10 13 -8 13
-10 -2 -10 -12 0 -16 8 -16 30 1 33 28 43 28 10z m-3590 0 c0 -5 -2 -10 -4
-10 -3 0 -8 5 -11 10 -3 6 -1 10 4 10 6 0 11 -4 11 -10z m2460 -15 c0 -8 -4
-15 -10 -15 -5 0 -10 7 -10 15 0 8 5 15 10 15 6 0 10 -7 10 -15z m1357 -14 c1
-13 -3 -18 -12 -15 -8 3 -11 12 -8 20 7 20 18 17 20 -5z m-3797 -21 c0 -5 -7
-10 -16 -10 -8 0 -12 5 -9 10 3 6 10 10 16 10 5 0 9 -4 9 -10z m164 -6 c3 -8
2 -12 -4 -9 -6 3 -10 10 -10 16 0 14 7 11 14 -7z m564 -9 c-3 -3 -9 2 -12 12
-6 14 -5 15 5 6 7 -7 10 -15 7 -18z m2839 9 c-3 -3 -12 -4 -19 -1 -8 3 -5 6 6
6 11 1 17 -2 13 -5z m-3427 -8 c0 -2 -7 -9 -15 -16 -12 -10 -15 -10 -15 4 0 9
7 16 15 16 8 0 15 -2 15 -4z m3653 -3 c-7 -2 -19 -2 -25 0 -7 3 -2 5 12 5 14
0 19 -2 13 -5z m-233 -13 c0 -5 -4 -10 -10 -10 -5 0 -10 5 -10 10 0 6 5 10 10
10 6 0 10 -4 10 -10z m-98 -121 c2 -68 -1 -105 -7 -103 -6 3 -9 47 -6 117 4
135 9 130 13 -14z m328 106 c0 -8 -8 -15 -17 -14 -13 0 -14 2 -4 6 11 5 11 7
0 14 -11 7 -10 9 4 9 9 0 17 -7 17 -15z m-170 -4 c0 -6 -4 -13 -10 -16 -5 -3
-10 1 -10 9 0 9 5 16 10 16 6 0 10 -4 10 -9z m-3540 -17 c0 -8 -4 -12 -10 -9
-5 3 -10 10 -10 16 0 5 5 9 10 9 6 0 10 -7 10 -16z m3477 10 c-3 -3 -12 -4
-19 -1 -8 3 -5 6 6 6 11 1 17 -2 13 -5z m-3377 -8 c0 -3 -4 -8 -10 -11 -5 -3
-10 -1 -10 4 0 6 5 11 10 11 6 0 10 -2 10 -4z m2347 -18 c-3 -8 -6 -5 -6 6 -1
11 2 17 5 13 3 -3 4 -12 1 -19z m1030 6 c-3 -3 -12 -4 -19 -1 -8 3 -5 6 6 6
11 1 17 -2 13 -5z m233 -4 c0 -5 -7 -10 -15 -10 -8 0 -15 5 -15 10 0 6 7 10
15 10 8 0 15 -4 15 -10z m-3678 -22 c-7 -7 -12 -8 -12 -2 0 14 12 26 19 19 2
-3 -1 -11 -7 -17z m3448 2 c0 -5 -7 -10 -15 -10 -8 0 -15 5 -15 10 0 6 7 10
15 10 8 0 15 -4 15 -10z m217 -6 c-3 -3 -12 -4 -19 -1 -8 3 -5 6 6 6 11 1 17
-2 13 -5z m-3647 -29 c0 -9 -6 -12 -15 -9 -8 4 -12 10 -9 15 8 14 24 10 24 -6z
m3427 9 c-3 -3 -12 -4 -19 -1 -8 3 -5 6 6 6 11 1 17 -2 13 -5z m223 -24 c0
-25 -4 -30 -22 -29 -17 1 -19 2 -5 6 9 2 17 9 17 14 0 6 -4 7 -10 4 -5 -3 -10
-1 -10 4 0 6 5 11 11 11 5 0 7 5 4 10 -3 6 -1 10 4 10 6 0 11 -13 11 -30z
m-227 3 c-7 -2 -19 -2 -25 0 -7 3 -2 5 12 5 14 0 19 -2 13 -5z m2 -23 c-3 -5
-13 -10 -21 -10 -8 0 -12 5 -9 10 3 6 13 10 21 10 8 0 12 -4 9 -10z m307 -10
c32 -29 17 -33 -16 -5 -16 14 -24 25 -17 25 6 0 21 -9 33 -20z m-3672 0 c12
-8 11 -10 -7 -10 -12 0 -25 5 -28 10 -8 13 15 13 35 0z m3363 -17 c-7 -2 -19
-2 -25 0 -7 3 -2 5 12 5 14 0 19 -2 13 -5z m220 0 c-7 -2 -19 -2 -25 0 -7 3
-2 5 12 5 14 0 19 -2 13 -5z m-226 -19 c-3 -3 -12 -4 -19 -1 -8 3 -5 6 6 6 11
1 17 -2 13 -5z m223 -14 c0 -12 -7 -20 -17 -20 -14 0 -15 2 -4 9 7 5 10 14 7
20 -4 6 -2 11 3 11 6 0 11 -9 11 -20z m-3180 6 c0 -2 -7 -6 -15 -10 -8 -3 -15
-1 -15 4 0 6 7 10 15 10 8 0 15 -2 15 -4z m3354 -51 c37 -56 44 -75 26 -75 -5
0 -10 5 -10 11 0 6 -16 33 -35 59 -36 49 -41 60 -26 60 4 0 25 -25 45 -55z
m-399 35 c3 -5 -1 -10 -9 -10 -9 0 -16 5 -16 10 0 6 4 10 9 10 6 0 13 -4 16
-10z m-2352 -17 c-7 -2 -21 -2 -30 0 -10 3 -4 5 12 5 17 0 24 -2 18 -5z m2354
-9 c-3 -3 -12 -4 -19 -1 -8 3 -5 6 6 6 11 1 17 -2 13 -5z m223 -3 c0 -6 -5
-13 -12 -17 -6 -4 -8 -3 -4 4 3 5 0 13 -6 15 -8 3 -6 6 5 6 9 1 17 -3 17 -8z
m-3123 -33 c-3 -8 -6 -5 -6 6 -1 11 2 17 5 13 3 -3 4 -12 1 -19z m-237 -3 c7
-8 8 -15 2 -15 -5 0 -15 7 -22 15 -7 8 -8 15 -2 15 5 0 15 -7 22 -15z m90 -10
c10 -12 10 -15 -4 -15 -9 0 -16 7 -16 15 0 8 2 15 4 15 2 0 9 -7 16 -15z
m3260 5 c0 -5 -7 -10 -16 -10 -8 0 -12 5 -9 10 3 6 10 10 16 10 5 0 9 -4 9
-10z m-3 -26 c-3 -3 -12 -4 -19 -1 -8 3 -5 6 6 6 11 1 17 -2 13 -5z m907 -37
c0 -40 7 -79 26 -139 5 -16 4 -28 0 -28 -16 0 -54 169 -44 195 11 28 19 15 18
-28z m-1655 -10 c0 -21 -1 -21 -9 -2 -12 28 -12 37 0 30 6 -3 10 -16 9 -28z
m988 11 c-3 -8 -6 -5 -6 6 -1 11 2 17 5 13 3 -3 4 -12 1 -19z m2278 13 c3 -5
1 -12 -5 -16 -5 -3 -10 1 -10 9 0 18 6 21 15 7z m-5740 -13 c14 -6 25 -15 25
-20 0 -5 -13 -2 -30 7 -45 23 -41 34 5 13z m840 2 c3 -5 1 -10 -4 -10 -6 0
-11 5 -11 10 0 6 2 10 4 10 3 0 8 -4 11 -10z m2095 -25 c0 -26 -4 -35 -16 -35
-13 0 -14 3 -5 13 6 8 8 17 4 21 -13 13 -11 36 3 36 9 0 14 -12 14 -35z m2778
8 c17 -4 20 -8 11 -14 -7 -4 -13 -25 -13 -47 -1 -26 -6 -39 -15 -39 -10 0 -12
11 -8 46 3 25 3 40 0 33 -6 -15 -23 -6 -23 14 0 15 12 17 48 7z m-2711 -19
c-3 -3 -12 -4 -19 -1 -8 3 -5 6 6 6 11 1 17 -2 13 -5z m220 0 c-3 -3 -12 -4
-19 -1 -8 3 -5 6 6 6 11 1 17 -2 13 -5z m2410 -36 c-3 -7 -5 -2 -5 12 0 14 2
19 5 13 2 -7 2 -19 0 -25z m-5494 -3 c28 -7 47 -25 27 -25 -20 0 -70 30 -70
43 0 9 2 9 8 0 4 -6 20 -15 35 -18z m42 15 c3 -5 2 -10 -4 -10 -5 0 -13 5 -16
10 -3 6 -2 10 4 10 5 0 13 -4 16 -10z m2262 -12 c-3 -8 -6 -5 -6 6 -1 11 2 17
5 13 3 -3 4 -12 1 -19z m553 12 c0 -5 -2 -10 -4 -10 -3 0 -8 5 -11 10 -3 6 -1
10 4 10 6 0 11 -4 11 -10z m225 0 c3 -5 -1 -10 -10 -10 -9 0 -13 5 -10 10 3 6
8 10 10 10 2 0 7 -4 10 -10z m2456 -263 c-2 -5 -7 -5 -11 0 -5 4 -6 64 -2 133
l7 125 5 -125 c3 -69 3 -129 1 -133z m-2515 218 c1 -8 -2 -13 -7 -9 -5 3 -9
12 -9 21 0 19 13 9 16 -12z m-234 -46 c-2 -33 -7 -58 -10 -54 -12 12 -10 115
2 115 7 0 10 -22 8 -61z m65 45 c-3 -3 -12 -4 -19 -1 -8 3 -5 6 6 6 11 1 17
-2 13 -5z m220 0 c-3 -3 -12 -4 -19 -1 -8 3 -5 6 6 6 11 1 17 -2 13 -5z
m-3007 -14 c0 -5 -4 -10 -10 -10 -5 0 -10 5 -10 10 0 6 5 10 10 10 6 0 10 -4
10 -10z m2137 4 c-3 -3 -12 -4 -19 -1 -8 3 -5 6 6 6 11 1 17 -2 13 -5z m-2087
-14 c-20 -13 -40 -13 -40 0 0 6 12 10 28 10 21 0 24 -2 12 -10z m2740 0 c0 -5
-5 -10 -11 -10 -5 0 -7 5 -4 10 3 6 8 10 11 10 2 0 4 -4 4 -10z m220 -10 c0
-11 -5 -20 -11 -20 -5 0 -7 5 -4 10 3 6 0 10 -7 10 -9 0 -9 3 2 10 20 13 20
13 20 -10z m2517 -12 c-3 -7 -5 -2 -5 12 0 14 2 19 5 13 2 -7 2 -19 0 -25z
m-3409 -3 c-3 -3 -9 2 -12 12 -6 14 -5 15 5 6 7 -7 10 -15 7 -18z m741 11 c9
-11 9 -16 -1 -22 -7 -4 -10 -4 -6 1 4 4 3 14 -3 22 -6 7 -9 13 -6 13 2 0 10
-6 16 -14z m92 -59 c-4 -4 -8 12 -8 35 l-2 43 9 -35 c5 -19 5 -38 1 -43z
m-734 31 c-3 -8 -6 -5 -6 6 -1 11 2 17 5 13 3 -3 4 -12 1 -19z m570 16 c-3 -3
-12 -4 -19 -1 -8 3 -5 6 6 6 11 1 17 -2 13 -5z m1250 -26 c-3 -8 -6 -5 -6 6
-1 11 2 17 5 13 3 -3 4 -12 1 -19z m-1250 6 c-3 -3 -12 -4 -19 -1 -8 3 -5 6 6
6 11 1 17 -2 13 -5z m223 -4 c0 -5 -7 -7 -15 -4 -8 4 -15 8 -15 10 0 2 7 4 15
4 8 0 15 -4 15 -10z m2407 -42 c-2 -13 -4 -5 -4 17 -1 22 1 32 4 23 2 -10 2
-28 0 -40z m110 15 c-3 -10 -5 -4 -5 12 0 17 2 24 5 18 2 -7 2 -21 0 -30z
m-2737 7 c0 -5 -8 -10 -17 -10 -15 0 -16 2 -3 10 19 12 20 12 20 0z m430 -12
c0 -16 -3 -19 -11 -11 -6 6 -8 16 -5 22 11 17 16 13 16 -11z m-997 -33 c4 -27
3 -35 -3 -25 -5 8 -10 28 -10 44 0 39 6 30 13 -19z m784 39 c-3 -3 -12 -4 -19
-1 -8 3 -5 6 6 6 11 1 17 -2 13 -5z m973 2 c0 -2 -7 -6 -15 -10 -8 -3 -15 -1
-15 4 0 6 7 10 15 10 8 0 15 -2 15 -4z m67 -18 c-3 -8 -6 -5 -6 6 -1 11 2 17
5 13 3 -3 4 -12 1 -19z m-1137 -9 c0 -6 -4 -7 -10 -4 -5 3 -10 11 -10 16 0 6
5 7 10 4 6 -3 10 -11 10 -16z m-191 -16 c0 -25 -1 -25 -8 -8 -5 11 -7 23 -4
28 8 14 13 7 12 -20z m71 5 c0 -12 -3 -18 -7 -14 -11 10 -12 36 -2 36 5 0 9
-10 9 -22z m169 -56 c-1 -79 -6 -72 -11 15 -2 34 -1 60 4 57 4 -3 8 -35 7 -72z
m48 72 c-3 -3 -12 -4 -19 -1 -8 3 -5 6 6 6 11 1 17 -2 13 -5z m-7 -24 c0 -5
-5 -10 -11 -10 -5 0 -7 5 -4 10 3 6 8 10 11 10 2 0 4 -4 4 -10z m1068 -55 c0
-16 -2 -15 -8 5 -4 14 -8 34 -8 45 0 16 2 15 8 -5 4 -14 8 -34 8 -45z m-1025
-110 c3 -97 2 -144 -3 -120 -9 38 -14 293 -6 284 2 -2 6 -76 9 -164z m-46 139
c-3 -3 -12 -4 -19 -1 -8 3 -5 6 6 6 11 1 17 -2 13 -5z m993 -4 c-8 -5 -19 -10
-25 -10 -5 0 -3 5 5 10 8 5 20 10 25 10 6 0 3 -5 -5 -10z m1417 -37 c-3 -10
-5 -4 -5 12 0 17 2 24 5 18 2 -7 2 -21 0 -30z m123 15 c0 -16 -3 -19 -11 -11
-6 6 -8 16 -5 22 11 17 16 13 16 -11z m-2743 6 c-3 -3 -12 -4 -19 -1 -8 3 -5
6 6 6 11 1 17 -2 13 -5z m213 -3 c0 -6 -4 -13 -10 -16 -5 -3 -10 1 -10 9 0 9
5 16 10 16 6 0 10 -4 10 -9z m993 -7 c-7 -3 -9 -13 -6 -22 4 -15 3 -15 -6 -2
-15 22 -14 30 7 29 9 0 12 -3 5 -5z m-3783 -14 c0 -5 -5 -10 -11 -10 -5 0 -7
5 -4 10 3 6 8 10 11 10 2 0 4 -4 4 -10z m2007 -37 c-3 -10 -5 -4 -5 12 0 17 2
24 5 18 2 -7 2 -21 0 -30z m570 11 c-3 -3 -12 -4 -19 -1 -8 3 -5 6 6 6 11 1
17 -2 13 -5z m2720 -51 c-3 -10 -5 -2 -5 17 0 19 2 27 5 18 2 -10 2 -26 0 -35z
m-2783 -8 c-1 -25 -5 -45 -10 -45 -5 0 -9 5 -8 10 1 6 2 26 3 45 0 19 4 35 9
35 4 0 6 -20 6 -45z m63 39 c-3 -3 -12 -4 -19 -1 -8 3 -5 6 6 6 11 1 17 -2 13
-5z m208 -4 c3 -5 2 -10 -4 -10 -5 0 -13 5 -16 10 -3 6 -2 10 4 10 5 0 13 -4
16 -10z m-875 -10 c0 -5 -2 -10 -4 -10 -3 0 -8 5 -11 10 -3 6 -1 10 4 10 6 0
11 -4 11 -10z m1897 4 c-3 -3 -12 -4 -19 -1 -8 3 -5 6 6 6 11 1 17 -2 13 -5z
m-1800 -71 c-2 -16 -4 -5 -4 22 0 28 2 40 4 28 2 -13 2 -35 0 -50z m638 47
c-3 -5 3 -13 12 -19 13 -7 14 -10 4 -11 -10 0 -7 -6 7 -19 22 -18 32 -81 13
-81 -9 0 -29 47 -37 90 -3 13 -10 28 -16 31 -6 4 -7 12 -4 18 4 6 12 9 17 5 5
-3 7 -9 4 -14z m2542 -22 c-3 -8 -6 -5 -6 6 -1 11 2 17 5 13 3 -3 4 -12 1 -19z
m-1364 -5 c-7 -2 -19 -2 -25 0 -7 3 -2 5 12 5 14 0 19 -2 13 -5z m-1246 -9
c-3 -3 -12 -4 -19 -1 -8 3 -5 6 6 6 11 1 17 -2 13 -5z m160 -16 c-3 -8 -6 -5
-6 6 -1 11 2 17 5 13 3 -3 4 -12 1 -19z m45 -30 c2 -21 0 -38 -4 -38 -4 0 -8
21 -7 48 1 52 6 48 11 -10z m2505 10 c-3 -7 -5 -2 -5 12 0 14 2 19 5 13 2 -7
2 -19 0 -25z m-2707 12 c0 -5 -5 -10 -11 -10 -5 0 -7 5 -4 10 3 6 8 10 11 10
2 0 4 -4 4 -10z m-60 -30 c0 -5 -7 -10 -15 -10 -8 0 -15 5 -15 10 0 6 7 10 15
10 8 0 15 -4 15 -10z m217 -37 c-3 -10 -5 -2 -5 17 0 19 2 27 5 18 2 -10 2
-26 0 -35z m1110 31 c-3 -3 -12 -4 -19 -1 -8 3 -5 6 6 6 11 1 17 -2 13 -5z
m-1330 -46 c-3 -8 -6 -5 -6 6 -1 11 2 17 5 13 3 -3 4 -12 1 -19z m60 -10 c-3
-7 -5 -2 -5 12 0 14 2 19 5 13 2 -7 2 -19 0 -25z m1270 26 c-3 -3 -12 -4 -19
-1 -8 3 -5 6 6 6 11 1 17 -2 13 -5z m70 -26 c-3 -8 -6 -5 -6 6 -1 11 2 17 5
13 3 -3 4 -12 1 -19z m-67 8 c0 -3 -4 -8 -10 -11 -5 -3 -10 -1 -10 4 0 6 5 11
10 11 6 0 10 -2 10 -4z m-1101 -39 c0 -21 -1 -21 -9 -2 -12 28 -12 37 0 30 6
-3 10 -16 9 -28z m1124 -14 c-7 -2 -19 -2 -25 0 -7 3 -2 5 12 5 14 0 19 -2 13
-5z m64 -35 c-3 -8 -6 -5 -6 6 -1 11 2 17 5 13 3 -3 4 -12 1 -19z m-1360 -35
c-3 -10 -5 -2 -5 17 0 19 2 27 5 18 2 -10 2 -26 0 -35z m1313 3 c0 -2 -9 -6
-20 -9 -11 -3 -18 -1 -14 4 5 9 34 13 34 5z m-1098 -36 c3 -16 1 -30 -3 -30
-4 0 -9 14 -11 30 -3 17 -1 30 3 30 4 0 9 -13 11 -30z m1165 -2 c-3 -8 -6 -5
-6 6 -1 11 2 17 5 13 3 -3 4 -12 1 -19z m1200 -30 c-2 -13 -4 -5 -4 17 -1 22
1 32 4 23 2 -10 2 -28 0 -40z m-1264 35 c-7 -2 -19 -2 -25 0 -7 3 -2 5 12 5
14 0 19 -2 13 -5z m-1307 -50 c-11 -11 -17 4 -9 23 7 18 8 18 11 1 2 -10 1
-21 -2 -24z m1304 33 c0 -3 -4 -8 -10 -11 -5 -3 -10 -1 -10 4 0 6 5 11 10 11
6 0 10 -2 10 -4z m-1090 -30 c0 -3 -4 -8 -10 -11 -5 -3 -10 -1 -10 4 0 6 5 11
10 11 6 0 10 -2 10 -4z m1103 -3 c-7 -2 -19 -2 -25 0 -7 3 -2 5 12 5 14 0 19
-2 13 -5z m4 -19 c-3 -3 -12 -4 -19 -1 -8 3 -5 6 6 6 11 1 17 -2 13 -5z m1240
-31 c-3 -10 -5 -4 -5 12 0 17 2 24 5 18 2 -7 2 -21 0 -30z m-2560 -15 c-3 -7
-5 -2 -5 12 0 14 2 19 5 13 2 -7 2 -19 0 -25z m302 -27 c1 -35 -5 -22 -12 24
-5 28 -4 34 3 20 5 -11 9 -31 9 -44z m-89 25 c0 -3 -4 -8 -10 -11 -5 -3 -10
-1 -10 4 0 6 5 11 10 11 6 0 10 -2 10 -4z m1123 -3 c-7 -2 -19 -2 -25 0 -7 3
-2 5 12 5 14 0 19 -2 13 -5z m1274 -40 c-3 -10 -5 -2 -5 17 0 19 2 27 5 18 2
-10 2 -26 0 -35z m-2600 21 c-3 -3 -12 -4 -19 -1 -8 3 -5 6 6 6 11 1 17 -2 13
-5z m70 -16 c-3 -8 -6 -5 -6 6 -1 11 2 17 5 13 3 -3 4 -12 1 -19z m80 -165
c-2 -37 -3 -9 -3 62 0 72 1 102 3 68 2 -34 2 -93 0 -130z m1178 177 c-3 -5
-14 -10 -23 -9 -14 0 -13 2 3 9 27 11 27 11 20 0z m1210 -65 c-4 -36 -10 -64
-12 -61 -3 2 -2 34 2 71 4 36 10 64 12 61 3 -2 2 -34 -2 -71z m-2535 45 c0 -5
-4 -10 -9 -10 -6 0 -13 5 -16 10 -3 6 1 10 9 10 9 0 16 -4 16 -10z m-140 -10
c0 -5 -5 -10 -11 -10 -5 0 -7 5 -4 10 3 6 8 10 11 10 2 0 4 -4 4 -10z m340
-10 c0 -11 -4 -20 -10 -20 -5 0 -10 9 -10 20 0 11 5 20 10 20 6 0 10 -9 10
-20z m1127 14 c-3 -3 -12 -4 -19 -1 -8 3 -5 6 6 6 11 1 17 -2 13 -5z m-1872
-43 c-17 -33 -25 -39 -25 -18 0 14 32 58 38 52 2 -2 -4 -17 -13 -34z m363 9
c-7 -11 -16 -20 -20 -20 -11 0 -10 9 5 25 18 21 29 18 15 -5z m479 -17 c-3
-10 -5 -4 -5 12 0 17 2 24 5 18 2 -7 2 -21 0 -30z m-552 18 c3 -5 1 -12 -4
-15 -5 -3 -11 1 -15 9 -6 16 9 21 19 6z m-355 -11 c0 -5 -5 -10 -11 -10 -5 0
-7 5 -4 10 3 6 8 10 11 10 2 0 4 -4 4 -10z m607 4 c-3 -3 -12 -4 -19 -1 -8 3
-5 6 6 6 11 1 17 -2 13 -5z m1343 -6 c0 -4 -7 -8 -15 -8 -8 0 -15 4 -15 8 0 5
7 9 15 9 8 0 15 -4 15 -9z m67 -20 c-3 -8 -6 -5 -6 6 -1 11 2 17 5 13 3 -3 4
-12 1 -19z m-1410 6 c-3 -3 -12 -4 -19 -1 -8 3 -5 6 6 6 11 1 17 -2 13 -5z
m-620 -26 c-3 -8 -6 -5 -6 6 -1 11 2 17 5 13 3 -3 4 -12 1 -19z m823 12 c0 -5
-4 -10 -10 -10 -5 0 -10 5 -10 10 0 6 5 10 10 10 6 0 10 -4 10 -10z m1145 0
c-11 -5 -14 -9 -7 -9 7 -1 10 -6 6 -12 -4 -8 -9 -7 -15 2 -14 22 -11 29 14 28
21 0 21 -1 2 -9z m1292 -37 c-3 -10 -5 -2 -5 17 0 19 2 27 5 18 2 -10 2 -26 0
-35z m-1220 5 c-3 -8 -6 -5 -6 6 -1 11 2 17 5 13 3 -3 4 -12 1 -19z m-1420 -4
c-3 -3 -12 -4 -19 -1 -8 3 -5 6 6 6 11 1 17 -2 13 -5z m320 -16 c-3 -8 -6 -5
-6 6 -1 11 2 17 5 13 3 -3 4 -12 1 -19z m1043 12 c0 -5 -8 -10 -17 -10 -15 0
-16 2 -3 10 19 12 20 12 20 0z m1157 -52 c-2 -13 -4 -5 -4 17 -1 22 1 32 4 23
2 -10 2 -28 0 -40z m-2520 36 c-3 -3 -12 -4 -19 -1 -8 3 -5 6 6 6 11 1 17 -2
13 -5z m-670 -10 c-3 -3 -12 -4 -19 -1 -8 3 -5 6 6 6 11 1 17 -2 13 -5z m873
-4 c0 -5 -4 -10 -10 -10 -5 0 -10 5 -10 10 0 6 5 10 10 10 6 0 10 -4 10 -10z
m1170 6 c0 -2 -7 -6 -15 -10 -8 -3 -15 -1 -15 4 0 6 7 10 15 10 8 0 15 -2 15
-4z m1257 -53 c-3 -10 -5 -2 -5 17 0 19 2 27 5 18 2 -10 2 -26 0 -35z m-1260
21 c-3 -3 -12 -4 -19 -1 -8 3 -5 6 6 6 11 1 17 -2 13 -5z m10 -20 c-3 -3 -12
-4 -19 -1 -8 3 -5 6 6 6 11 1 17 -2 13 -5z m3 -24 c0 -5 -7 -10 -16 -10 -8 0
-12 5 -9 10 3 6 10 10 16 10 5 0 9 -4 9 -10z m-1183 -6 c-3 -3 -12 -4 -19 -1
-8 3 -5 6 6 6 11 1 17 -2 13 -5z m2310 -56 c-2 -13 -4 -3 -4 22 0 25 2 35 4
23 2 -13 2 -33 0 -45z m-2357 36 c0 -8 -5 -12 -10 -9 -6 4 -8 11 -5 16 9 14
15 11 15 -7z m2464 -63 c-3 -40 -9 -70 -11 -67 -3 3 -2 37 2 76 4 39 9 69 12
67 2 -3 1 -37 -3 -76z m-2424 54 c0 -8 -4 -15 -10 -15 -5 0 -7 7 -4 15 4 8 8
15 10 15 2 0 4 -7 4 -15z m1200 11 c0 -2 -7 -6 -15 -10 -8 -3 -15 -1 -15 4 0
6 7 10 15 10 8 0 15 -2 15 -4z m5 -26 c-3 -5 -13 -10 -21 -10 -8 0 -12 5 -9
10 3 6 13 10 21 10 8 0 12 -4 9 -10z m2 -26 c-3 -3 -12 -4 -19 -1 -8 3 -5 6 6
6 11 1 17 -2 13 -5z m6 -31 c-7 -2 -19 -2 -25 0 -7 3 -2 5 12 5 14 0 19 -2 13
-5z m0 -20 c-7 -2 -19 -2 -25 0 -7 3 -2 5 12 5 14 0 19 -2 13 -5z m3 -54 c1
-17 7 -35 15 -40 10 -6 10 -9 2 -9 -9 0 -11 -13 -7 -42 4 -24 9 -45 13 -48 3
-3 7 -14 8 -25 9 -75 25 -164 33 -185 5 -14 20 -79 34 -145 21 -100 26 -156
30 -335 3 -118 7 -244 10 -280 2 -36 2 -52 0 -37 -3 15 -11 27 -17 26 -27 -3
-37 2 -38 19 0 9 -5 1 -11 -18 -7 -24 -12 -30 -17 -20 -6 14 -45 19 -57 8 -8
-8 8 -88 17 -88 5 0 9 -7 9 -15 0 -8 -4 -15 -10 -15 -5 0 -10 -15 -10 -34 0
-19 -4 -37 -8 -40 -5 -3 -7 -20 -5 -38 l3 -33 -11 33 c-5 18 -15 32 -22 31 -7
-1 -25 3 -41 10 -15 6 -39 12 -52 13 -14 2 -24 9 -25 18 0 10 -2 11 -6 3 -7
-19 -22 -16 -22 5 -1 9 -4 34 -7 55 -5 31 -2 43 16 62 13 14 27 22 31 19 11
-6 39 61 39 91 0 13 -10 32 -22 42 -32 26 -94 104 -102 129 -4 14 5 35 34 74
42 57 50 93 25 126 -17 23 -20 85 -3 102 7 7 17 8 28 2 13 -7 20 -3 30 18 17
37 24 276 12 392 -6 55 -6 102 -1 111 5 9 24 26 44 38 19 11 35 27 35 36 0 30
25 15 26 -16z m-1216 17 c0 -3 -4 -8 -10 -11 -5 -3 -10 -1 -10 4 0 6 5 11 10
11 6 0 10 -2 10 -4z m-53 -28 c-3 -8 -6 -5 -6 6 -1 11 2 17 5 13 3 -3 4 -12 1
-19z m2460 0 c-3 -8 -6 -5 -6 6 -1 11 2 17 5 13 3 -3 4 -12 1 -19z m-130 -45
c-3 -10 -5 -2 -5 17 0 19 2 27 5 18 2 -10 2 -26 0 -35z m-2330 -15 c-3 -7 -5
-2 -5 12 0 14 2 19 5 13 2 -7 2 -19 0 -25z m81 -29 l-3 -44 -5 52 c-3 29 -1
48 3 44 5 -5 7 -28 5 -52z m-203 -29 c3 -5 1 -10 -4 -10 -6 0 -11 5 -11 10 0
6 2 10 4 10 3 0 8 -4 11 -10z m15 -56 c0 -8 -4 -12 -10 -9 -5 3 -10 10 -10 16
0 5 5 9 10 9 6 0 10 -7 10 -16z m16 -41 c0 -10 4 -28 8 -40 5 -14 3 -23 -3
-23 -6 0 -11 9 -11 21 0 11 -5 29 -10 40 -8 14 -7 19 3 19 7 0 13 -8 13 -17z
m204 -131 c7 -46 10 -85 8 -88 -8 -8 -26 75 -32 151 -7 89 7 52 24 -63z m-63
62 c-3 -3 -12 -4 -19 -1 -8 3 -5 6 6 6 11 1 17 -2 13 -5z m-97 -88 c0 -3 -4
-8 -10 -11 -5 -3 -10 -1 -10 4 0 6 5 11 10 11 6 0 10 -2 10 -4z m4 -41 c3 -8
1 -15 -4 -15 -6 0 -10 7 -10 15 0 8 2 15 4 15 2 0 6 -7 10 -15z m-731 -42 c-7
-2 -19 -2 -25 0 -7 3 -2 5 12 5 14 0 19 -2 13 -5z m844 -35 c-3 -7 -5 -2 -5
12 0 14 2 19 5 13 2 -7 2 -19 0 -25z m-93 -3 c3 -8 1 -15 -4 -15 -6 0 -10 7
-10 15 0 8 2 15 4 15 2 0 6 -7 10 -15z m173 -27 c1 -30 1 -31 -7 -8 -11 33
-12 52 -2 46 4 -2 8 -19 9 -38z m-55 -63 c3 -14 1 -25 -3 -25 -5 0 -9 11 -9
25 0 14 2 25 4 25 2 0 6 -11 8 -25z m-73 -90 c0 -5 -4 -3 -9 5 -5 8 -9 22 -9
30 0 16 17 -16 18 -35z m11 -35 c0 -11 -2 -20 -4 -20 -2 0 -6 9 -9 20 -3 11
-1 20 4 20 5 0 9 -9 9 -20z m20 -85 c0 -8 -2 -15 -4 -15 -2 0 -6 7 -10 15 -3
8 -1 15 4 15 6 0 10 -7 10 -15z m34 -114 c-6 -6 -11 1 -18 29 l-7 25 15 -25
c8 -14 12 -27 10 -29z m1336 -271 c0 -5 -2 -10 -4 -10 -3 0 -8 5 -11 10 -3 6
-1 10 4 10 6 0 11 -4 11 -10z m7 -122 c-3 -7 -5 -2 -5 12 0 14 2 19 5 13 2 -7
2 -19 0 -25z m150 -860 c-3 -8 -6 -5 -6 6 -1 11 2 17 5 13 3 -3 4 -12 1 -19z
m-2532 -117 c-3 -6 -11 -11 -17 -11 -6 0 -6 6 2 15 14 17 26 13 15 -4z"/>
<path d="M4588 8453 c7 -3 16 -2 19 1 4 3 -2 6 -13 5 -11 0 -14 -3 -6 -6z"/>
<path d="M4451 7784 c0 -11 3 -14 6 -6 3 7 2 16 -1 19 -3 4 -6 -2 -5 -13z"/>
<path d="M5130 7601 c0 -17 18 -21 24 -6 3 9 0 15 -9 15 -8 0 -15 -4 -15 -9z"/>
<path d="M4880 7410 c0 -5 7 -10 16 -10 8 0 12 5 9 10 -3 6 -10 10 -16 10 -5
0 -9 -4 -9 -10z"/>
<path d="M4713 7303 c-15 -5 -17 -23 -4 -23 5 0 11 7 15 15 3 8 4 15 3 14 -1
0 -8 -3 -14 -6z"/>
<path d="M4686 7191 c-4 -5 -2 -12 3 -15 5 -4 12 -2 15 3 4 5 2 12 -3 15 -5 4
-12 2 -15 -3z"/>
<path d="M4212 6940 c0 -14 2 -19 5 -12 2 6 2 18 0 25 -3 6 -5 1 -5 -13z"/>
<path d="M5055 6050 c-3 -6 1 -7 9 -4 18 7 21 14 7 14 -6 0 -13 -4 -16 -10z"/>
<path d="M5077 6028 c-42 -17 -75 -33 -73 -36 5 -5 109 28 116 37 3 4 16 12
30 18 51 24 2 11 -73 -19z"/>
<path d="M5130 6014 c-36 -13 -72 -27 -80 -32 -9 -5 -31 -13 -50 -17 -19 -4
-41 -12 -47 -17 -7 -6 -20 -8 -28 -4 -8 3 -15 0 -15 -5 0 -6 -9 -9 -20 -6 -22
6 -37 -8 -20 -18 5 -3 10 -16 10 -28 0 -20 -1 -20 -13 -2 -10 13 -16 15 -21 6
-5 -7 0 -18 10 -26 25 -19 41 -18 48 2 6 14 9 14 27 -5 30 -33 93 -30 116 4
17 26 17 27 -12 50 -29 23 -29 24 -10 38 11 9 26 16 33 16 20 0 114 29 131 39
7 5 12 13 10 18 -2 5 -33 -1 -69 -13z"/>
<path d="M4950 5980 c-8 -5 -11 -12 -8 -15 4 -4 17 0 30 9 24 17 5 23 -22 6z"/>
<path d="M5086 5924 c-4 -10 -1 -14 6 -12 15 5 23 28 10 28 -5 0 -13 -7 -16
-16z"/>
<path d="M5140 5860 c-12 -8 -11 -10 7 -10 12 0 25 5 28 10 8 13 -15 13 -35 0z"/>
<path d="M5370 5861 c0 -6 -10 -12 -22 -12 -17 -1 -18 -3 -6 -6 23 -6 55 12
39 21 -6 4 -11 2 -11 -3z"/>
<path d="M4950 5809 c0 -5 5 -7 10 -4 6 3 10 8 10 11 0 2 -4 4 -10 4 -5 0 -10
-5 -10 -11z"/>
<path d="M5118 5778 c6 -24 28 -23 28 1 0 12 -7 19 -17 18 -10 -1 -14 -7 -11
-19z"/>
<path d="M4995 5780 c-3 -5 -1 -10 4 -10 6 0 11 5 11 10 0 6 -2 10 -4 10 -3 0
-8 -4 -11 -10z"/>
<path d="M4885 5589 c-4 -6 -5 -12 -2 -15 2 -3 7 2 10 11 7 17 1 20 -8 4z"/>
<path d="M4996 3444 c-3 -8 0 -22 8 -30 19 -18 26 -18 26 1 0 8 -5 15 -11 15
-5 0 -8 4 -4 9 3 5 1 12 -4 15 -5 3 -12 -1 -15 -10z"/>
<path d="M5016 3372 c6 -4 14 -14 17 -22 4 -10 6 -8 6 8 1 15 -5 22 -16 22
-11 0 -14 -3 -7 -8z"/>
<path d="M5032 3220 c0 -14 2 -19 5 -12 2 6 2 18 0 25 -3 6 -5 1 -5 -13z"/>
<path d="M4980 3205 c0 -9 6 -12 15 -9 8 4 15 7 15 9 0 2 -7 5 -15 9 -9 3 -15
0 -15 -9z"/>
<path d="M4983 3140 c0 -25 2 -35 4 -22 2 12 2 32 0 45 -2 12 -4 2 -4 -23z"/>
<path d="M5022 3140 c0 -14 2 -19 5 -12 2 6 2 18 0 25 -3 6 -5 1 -5 -13z"/>
<path d="M4952 2943 c-6 -2 -10 -8 -7 -13 3 -5 0 -21 -5 -36 -8 -19 -8 -30 0
-38 5 -5 10 -19 10 -30 0 -17 2 -18 10 -6 5 8 10 11 10 6 0 -6 4 -6 10 0 7 7
7 19 1 35 -8 20 -10 21 -10 5 -1 -14 -4 -17 -11 -10 -6 6 -7 25 -3 45 7 33 7
33 14 9 7 -24 7 -24 8 -2 1 14 8 22 19 23 14 0 14 2 -3 9 -23 10 -26 10 -43 3z"/>
<path d="M5095 2869 c-10 -15 3 -25 16 -12 7 7 7 13 1 17 -6 3 -14 1 -17 -5z"/>
<path d="M5063 2837 c3 -9 2 -19 -3 -22 -6 -4 -10 0 -10 7 0 8 -8 14 -18 14
-14 0 -17 -8 -17 -36 1 -36 44 -140 45 -107 0 15 11 22 33 18 4 -1 17 3 27 9
32 17 27 74 -7 98 -50 34 -57 37 -50 19z"/>
<path d="M5117 2675 c20 -27 38 -33 29 -9 -3 9 -6 18 -6 20 0 3 -4 2 -10 -1
-5 -3 -10 -1 -10 4 0 6 -5 11 -10 11 -6 0 -3 -11 7 -25z"/>
<path d="M5000 2645 c0 -8 5 -15 10 -15 6 0 10 7 10 15 0 8 -4 15 -10 15 -5 0
-10 -7 -10 -15z"/>
<path d="M4906 2304 c-8 -22 4 -40 15 -23 11 18 11 39 0 39 -5 0 -12 -7 -15
-16z"/>
<path d="M4946 2292 c-4 -7 -3 -19 3 -26 6 -7 7 -17 3 -21 -4 -5 -2 -5 5 -1 6
3 13 -1 15 -11 2 -9 13 -17 26 -18 12 -1 22 -1 22 1 0 1 -13 15 -28 31 -16 15
-31 35 -34 43 -3 11 -6 11 -12 2z"/>
</g>
</svg>
